<svg xmlns="http://www.w3.org/2000/svg" viewBox="0 0 750 500"><g id="freepik--background-complete--inject-23"><path d="M474.93,66.23c7.19,0,128.17.8,135.78.56.54,0,.84-.82.29-1.09-4.79-2.38-10.23-1.9-15.21-3.58-2.93-1-4.73-2.9-6.76-5.1a14,14,0,0,0-6.3-4.11,13.26,13.26,0,0,0-6.85-.21c-2.46.58-4.59,2-6.93,2.87-5.81,2.2-11.46.11-15.61-4.19-3.42-3.54-6.78-6.89-11.44-8.8a15.16,15.16,0,0,0-12.12-.16c-4.43,2-7.48,6-11.65,8.48-4.94,2.89-10.85,2.21-16.3,3.08s-9.65,5.46-14.44,8.11a10.24,10.24,0,0,1-5.22,1.62c-1.07,0-2.12-.32-3.17-.45-1.65-.2-3.22-.16-4.32,1.22C474.41,64.81,474.46,66.23,474.93,66.23Z" style="fill:#ebebeb"></path><path d="M43.77,82.52c5.24,0,93.57.58,99.12.4.4,0,.62-.6.22-.8-3.5-1.73-7.47-1.38-11.11-2.61-2.14-.72-3.45-2.12-4.93-3.72a10.25,10.25,0,0,0-4.6-3,9.75,9.75,0,0,0-5-.16c-1.8.43-3.35,1.46-5.06,2.1-4.25,1.6-8.37.08-11.4-3.06-2.5-2.58-5-5-8.35-6.42a11.08,11.08,0,0,0-8.85-.12c-3.24,1.46-5.46,4.42-8.5,6.19-3.61,2.11-7.93,1.61-11.91,2.25s-7,4-10.54,5.92a7.42,7.42,0,0,1-3.81,1.18,22.72,22.72,0,0,1-2.32-.33c-1.2-.14-2.34-.11-3.15.89C43.38,81.48,43.42,82.52,43.77,82.52Z" style="fill:#ebebeb"></path><path d="M296.77,139.68c5.25,0,93.58.59,99.13.41.4,0,.61-.6.22-.8-3.5-1.73-7.47-1.38-11.11-2.61-2.14-.72-3.45-2.12-4.94-3.72a10.22,10.22,0,0,0-4.59-3,9.68,9.68,0,0,0-5-.16c-1.79.43-3.34,1.46-5.05,2.1-4.25,1.6-8.37.08-11.4-3.06-2.5-2.59-5-5-8.35-6.42a11.08,11.08,0,0,0-8.85-.12c-3.24,1.46-5.46,4.42-8.51,6.19-3.6,2.11-7.92,1.61-11.9,2.25s-7.05,4-10.54,5.92a7.52,7.52,0,0,1-3.81,1.18,22.72,22.72,0,0,1-2.32-.33,3.17,3.17,0,0,0-3.15.89C296.39,138.65,296.43,139.68,296.77,139.68Z" style="fill:#ebebeb"></path><path d="M607,137.21c5.24,0,93.57.58,99.12.41.4,0,.62-.6.22-.8-3.5-1.73-7.47-1.38-11.1-2.61-2.14-.72-3.46-2.12-4.94-3.72a10.25,10.25,0,0,0-4.6-3,9.64,9.64,0,0,0-5-.16c-1.8.43-3.35,1.45-5.06,2.1-4.24,1.6-8.37.08-11.4-3.06-2.5-2.59-5-5-8.35-6.42a11.12,11.12,0,0,0-8.85-.13c-3.24,1.47-5.46,4.42-8.5,6.2-3.61,2.11-7.93,1.61-11.91,2.24s-7,4-10.54,5.93a7.49,7.49,0,0,1-3.81,1.18A22.72,22.72,0,0,1,610,135a3.17,3.17,0,0,0-3.15.89C606.6,136.17,606.64,137.21,607,137.21Z" style="fill:#ebebeb"></path><path d="M229.76,186.56c.1.3,139.21,0,137.46,0-.8,0,1.21-1.19.43-1.58-4.53-2.25-9.49-2.31-14.42-2.76a22.08,22.08,0,0,1-8.42-2.05c-2.62-1.37-4.25-3.75-6.12-5.95a26.1,26.1,0,0,0-23.75-9c-9.89,1.54-17.69,9.08-27.6,10.47-5.95.83-11.58-1.47-17.4-2.29a21.32,21.32,0,0,0-13.06,2.39c-3.14,1.56-6,2.87-9.59,3.11-2.72.2-5.46-.12-8.18-.14a18.34,18.34,0,0,0-12.05,4.81C226.61,184,225.21,186.56,229.76,186.56Z" style="fill:#ebebeb"></path><rect x="527.86" y="108.71" width="57.48" height="301.31" style="fill:#dbdbdb"></rect><rect x="536.78" y="118.49" width="11.17" height="11.5" style="fill:#ebebeb"></rect><rect x="551.08" y="118.49" width="11.17" height="11.5" style="fill:#ebebeb"></rect><rect x="536.78" y="138.03" width="11.17" height="11.5" style="fill:#ebebeb"></rect><rect x="551.08" y="138.03" width="11.17" height="11.5" style="fill:#ebebeb"></rect><rect x="536.78" y="157.56" width="11.17" height="11.51" style="fill:#ebebeb"></rect><rect x="551.08" y="157.56" width="11.17" height="11.51" style="fill:#ebebeb"></rect><rect x="536.78" y="177.09" width="11.17" height="11.51" style="fill:#ebebeb"></rect><rect x="551.08" y="177.09" width="11.17" height="11.51" style="fill:#ebebeb"></rect><rect x="536.78" y="196.63" width="11.17" height="11.5" style="fill:#ebebeb"></rect><rect x="551.08" y="196.63" width="11.17" height="11.5" style="fill:#ebebeb"></rect><rect x="536.78" y="216.16" width="11.17" height="11.5" style="fill:#ebebeb"></rect><rect x="551.08" y="216.16" width="11.17" height="11.5" style="fill:#ebebeb"></rect><rect x="536.78" y="235.69" width="11.17" height="11.5" style="fill:#ebebeb"></rect><rect x="551.08" y="235.69" width="11.17" height="11.5" style="fill:#ebebeb"></rect><rect x="536.78" y="255.22" width="11.17" height="11.5" style="fill:#ebebeb"></rect><rect x="551.08" y="255.22" width="11.17" height="11.5" style="fill:#ebebeb"></rect><rect x="536.78" y="274.76" width="11.17" height="11.51" style="fill:#ebebeb"></rect><rect x="551.08" y="274.76" width="11.17" height="11.51" style="fill:#ebebeb"></rect><rect x="536.78" y="294.29" width="11.17" height="11.51" style="fill:#ebebeb"></rect><rect x="551.08" y="294.29" width="11.17" height="11.51" style="fill:#ebebeb"></rect><rect x="536.78" y="313.82" width="11.17" height="11.51" style="fill:#ebebeb"></rect><rect x="551.08" y="313.82" width="11.17" height="11.51" style="fill:#ebebeb"></rect><rect x="536.78" y="333.35" width="11.17" height="11.5" style="fill:#ebebeb"></rect><rect x="551.08" y="333.35" width="11.17" height="11.5" style="fill:#ebebeb"></rect><rect x="536.78" y="352.89" width="11.17" height="11.5" style="fill:#ebebeb"></rect><rect x="551.08" y="352.89" width="11.17" height="11.5" style="fill:#ebebeb"></rect><rect x="536.78" y="372.42" width="11.17" height="11.5" style="fill:#ebebeb"></rect><rect x="565.25" y="372.42" width="11.17" height="11.5" transform="translate(1141.67 756.35) rotate(180)" style="fill:#ebebeb"></rect><rect x="565.25" y="352.89" width="11.17" height="11.5" transform="translate(1141.67 717.28) rotate(180)" style="fill:#ebebeb"></rect><rect x="565.25" y="333.35" width="11.17" height="11.5" transform="translate(1141.67 678.21) rotate(180)" style="fill:#ebebeb"></rect><rect x="565.25" y="313.82" width="11.17" height="11.51" transform="translate(1141.67 639.15) rotate(180)" style="fill:#ebebeb"></rect><rect x="565.25" y="294.29" width="11.17" height="11.51" transform="translate(1141.67 600.08) rotate(180)" style="fill:#ebebeb"></rect><rect x="565.25" y="274.76" width="11.17" height="11.51" transform="translate(1141.67 561.02) rotate(180)" style="fill:#ebebeb"></rect><rect x="565.25" y="255.22" width="11.17" height="11.5" transform="translate(1141.67 521.95) rotate(180)" style="fill:#ebebeb"></rect><rect x="565.25" y="235.69" width="11.17" height="11.5" transform="translate(1141.67 482.89) rotate(180)" style="fill:#ebebeb"></rect><rect x="565.25" y="216.16" width="11.17" height="11.5" transform="translate(1141.67 443.82) rotate(180)" style="fill:#ebebeb"></rect><rect x="565.25" y="196.63" width="11.17" height="11.5" transform="translate(1141.67 404.76) rotate(180)" style="fill:#ebebeb"></rect><rect x="565.25" y="177.09" width="11.17" height="11.51" transform="translate(1141.67 365.69) rotate(180)" style="fill:#ebebeb"></rect><rect x="565.25" y="157.56" width="11.17" height="11.51" transform="translate(1141.67 326.62) rotate(180)" style="fill:#ebebeb"></rect><rect x="565.25" y="138.03" width="11.17" height="11.5" transform="translate(1141.67 287.56) rotate(180)" style="fill:#ebebeb"></rect><rect x="565.25" y="118.49" width="11.17" height="11.5" transform="translate(1141.67 248.49) rotate(180)" style="fill:#ebebeb"></rect><rect x="551.08" y="372.42" width="11.17" height="11.5" style="fill:#ebebeb"></rect><rect x="585.34" y="108.71" width="45.32" height="301.31" style="fill:#a6a6a6"></rect><rect x="616.76" y="372.42" width="9.23" height="11.5" transform="translate(1242.75 756.35) rotate(180)" style="fill:#c7c7c7"></rect><rect x="604.96" y="372.42" width="9.23" height="11.5" transform="translate(1219.14 756.35) rotate(180)" style="fill:#c7c7c7"></rect><rect x="616.76" y="352.89" width="9.23" height="11.5" transform="translate(1242.75 717.28) rotate(180)" style="fill:#c7c7c7"></rect><rect x="604.96" y="352.89" width="9.23" height="11.5" transform="translate(1219.14 717.28) rotate(180)" style="fill:#c7c7c7"></rect><rect x="616.76" y="333.35" width="9.23" height="11.5" transform="translate(1242.75 678.21) rotate(180)" style="fill:#c7c7c7"></rect><rect x="604.96" y="333.35" width="9.23" height="11.5" transform="translate(1219.14 678.21) rotate(180)" style="fill:#c7c7c7"></rect><rect x="616.76" y="313.82" width="9.23" height="11.51" transform="translate(1242.75 639.15) rotate(180)" style="fill:#c7c7c7"></rect><rect x="604.96" y="313.82" width="9.23" height="11.51" transform="translate(1219.14 639.15) rotate(180)" style="fill:#c7c7c7"></rect><rect x="616.76" y="294.29" width="9.23" height="11.51" transform="translate(1242.75 600.08) rotate(180)" style="fill:#c7c7c7"></rect><rect x="604.96" y="294.29" width="9.23" height="11.51" transform="translate(1219.14 600.08) rotate(180)" style="fill:#c7c7c7"></rect><rect x="616.76" y="274.76" width="9.23" height="11.51" transform="translate(1242.75 561.02) rotate(180)" style="fill:#c7c7c7"></rect><rect x="604.96" y="274.76" width="9.23" height="11.51" transform="translate(1219.14 561.02) rotate(180)" style="fill:#c7c7c7"></rect><rect x="616.76" y="255.22" width="9.23" height="11.5" transform="translate(1242.75 521.95) rotate(180)" style="fill:#c7c7c7"></rect><rect x="604.96" y="255.22" width="9.23" height="11.5" transform="translate(1219.14 521.95) rotate(180)" style="fill:#c7c7c7"></rect><rect x="616.76" y="235.69" width="9.23" height="11.5" transform="translate(1242.75 482.89) rotate(180)" style="fill:#c7c7c7"></rect><rect x="604.96" y="235.69" width="9.23" height="11.5" transform="translate(1219.14 482.89) rotate(180)" style="fill:#c7c7c7"></rect><rect x="616.76" y="216.16" width="9.23" height="11.5" transform="translate(1242.75 443.82) rotate(180)" style="fill:#c7c7c7"></rect><rect x="604.96" y="216.16" width="9.23" height="11.5" transform="translate(1219.14 443.82) rotate(180)" style="fill:#c7c7c7"></rect><rect x="616.76" y="196.63" width="9.23" height="11.5" transform="translate(1242.75 404.76) rotate(180)" style="fill:#c7c7c7"></rect><rect x="604.96" y="196.63" width="9.23" height="11.5" transform="translate(1219.14 404.76) rotate(180)" style="fill:#c7c7c7"></rect><rect x="616.76" y="177.09" width="9.23" height="11.51" transform="translate(1242.75 365.69) rotate(180)" style="fill:#c7c7c7"></rect><rect x="604.96" y="177.09" width="9.23" height="11.51" transform="translate(1219.14 365.69) rotate(180)" style="fill:#c7c7c7"></rect><rect x="616.76" y="157.56" width="9.23" height="11.51" transform="translate(1242.75 326.62) rotate(180)" style="fill:#c7c7c7"></rect><rect x="604.96" y="157.56" width="9.23" height="11.51" transform="translate(1219.14 326.62) rotate(180)" style="fill:#c7c7c7"></rect><rect x="616.76" y="138.03" width="9.23" height="11.5" transform="translate(1242.75 287.56) rotate(180)" style="fill:#c7c7c7"></rect><rect x="604.96" y="138.03" width="9.23" height="11.5" transform="translate(1219.14 287.56) rotate(180)" style="fill:#c7c7c7"></rect><rect x="616.76" y="118.49" width="9.23" height="11.5" transform="translate(1242.75 248.49) rotate(180)" style="fill:#c7c7c7"></rect><rect x="593.26" y="118.49" width="9.23" height="11.5" style="fill:#c7c7c7"></rect><rect x="593.26" y="138.03" width="9.23" height="11.5" style="fill:#c7c7c7"></rect><rect x="593.26" y="157.56" width="9.23" height="11.51" style="fill:#c7c7c7"></rect><rect x="593.26" y="177.09" width="9.23" height="11.51" style="fill:#c7c7c7"></rect><rect x="593.26" y="196.63" width="9.23" height="11.5" style="fill:#c7c7c7"></rect><rect x="593.26" y="216.16" width="9.23" height="11.5" style="fill:#c7c7c7"></rect><rect x="593.26" y="235.69" width="9.23" height="11.5" style="fill:#c7c7c7"></rect><rect x="593.26" y="255.22" width="9.23" height="11.5" style="fill:#c7c7c7"></rect><rect x="593.26" y="274.76" width="9.23" height="11.51" style="fill:#c7c7c7"></rect><rect x="593.26" y="294.29" width="9.23" height="11.51" style="fill:#c7c7c7"></rect><rect x="593.26" y="313.82" width="9.23" height="11.51" style="fill:#c7c7c7"></rect><rect x="593.26" y="333.35" width="9.23" height="11.5" style="fill:#c7c7c7"></rect><rect x="593.26" y="352.89" width="9.23" height="11.5" style="fill:#c7c7c7"></rect><rect x="593.26" y="372.42" width="9.23" height="11.5" style="fill:#c7c7c7"></rect><rect x="604.96" y="118.49" width="9.23" height="11.5" transform="translate(1219.14 248.49) rotate(180)" style="fill:#c7c7c7"></rect><rect x="343.23" y="85.34" width="69.2" height="324.68" style="fill:#ebebeb"></rect><rect x="341.57" y="78.87" width="70.86" height="6.47" style="fill:#c7c7c7"></rect><rect x="349.49" y="94.87" width="7.01" height="315.15" style="fill:#fff"></rect><rect x="361.91" y="94.87" width="7.01" height="315.15" style="fill:#fff"></rect><rect x="374.33" y="94.87" width="7.01" height="315.15" style="fill:#fff"></rect><rect x="386.74" y="94.87" width="7.01" height="315.15" style="fill:#fff"></rect><rect x="399.16" y="94.87" width="7.01" height="315.15" style="fill:#fff"></rect><rect x="349.49" y="103.03" width="7.01" height="12.76" style="fill:#ebebeb"></rect><rect x="361.91" y="103.03" width="7.01" height="12.76" style="fill:#ebebeb"></rect><rect x="374.33" y="103.03" width="7.01" height="12.76" style="fill:#ebebeb"></rect><rect x="386.74" y="103.03" width="7.01" height="12.76" style="fill:#ebebeb"></rect><rect x="399.16" y="103.03" width="7.01" height="12.76" style="fill:#ebebeb"></rect><rect x="349.49" y="123.78" width="7.01" height="12.76" style="fill:#ebebeb"></rect><rect x="361.91" y="123.78" width="7.01" height="12.76" style="fill:#ebebeb"></rect><rect x="374.33" y="123.78" width="7.01" height="12.76" style="fill:#ebebeb"></rect><rect x="386.74" y="123.78" width="7.01" height="12.76" style="fill:#ebebeb"></rect><rect x="399.16" y="123.78" width="7.01" height="12.76" style="fill:#ebebeb"></rect><rect x="349.49" y="144.52" width="7.01" height="12.76" style="fill:#ebebeb"></rect><rect x="361.91" y="144.52" width="7.01" height="12.76" style="fill:#ebebeb"></rect><rect x="374.33" y="144.52" width="7.01" height="12.76" style="fill:#ebebeb"></rect><rect x="386.74" y="144.52" width="7.01" height="12.76" style="fill:#ebebeb"></rect><rect x="399.16" y="144.52" width="7.01" height="12.76" style="fill:#ebebeb"></rect><rect x="349.49" y="165.26" width="7.01" height="12.76" style="fill:#ebebeb"></rect><rect x="361.91" y="165.26" width="7.01" height="12.76" style="fill:#ebebeb"></rect><rect x="374.33" y="165.26" width="7.01" height="12.76" style="fill:#ebebeb"></rect><rect x="386.74" y="165.26" width="7.01" height="12.76" style="fill:#ebebeb"></rect><rect x="399.16" y="165.26" width="7.01" height="12.76" style="fill:#ebebeb"></rect><rect x="349.49" y="186" width="7.01" height="12.76" style="fill:#ebebeb"></rect><rect x="361.91" y="186" width="7.01" height="12.76" style="fill:#ebebeb"></rect><rect x="374.33" y="186" width="7.01" height="12.76" style="fill:#ebebeb"></rect><rect x="386.74" y="186" width="7.01" height="12.76" style="fill:#ebebeb"></rect><rect x="399.16" y="186" width="7.01" height="12.76" style="fill:#ebebeb"></rect><rect x="349.49" y="206.75" width="7.01" height="12.76" style="fill:#ebebeb"></rect><rect x="361.91" y="206.75" width="7.01" height="12.76" style="fill:#ebebeb"></rect><rect x="374.33" y="206.75" width="7.01" height="12.76" style="fill:#ebebeb"></rect><rect x="386.74" y="206.75" width="7.01" height="12.76" style="fill:#ebebeb"></rect><rect x="399.16" y="206.75" width="7.01" height="12.76" style="fill:#ebebeb"></rect><rect x="349.49" y="227.49" width="7.01" height="12.76" style="fill:#ebebeb"></rect><rect x="361.91" y="227.49" width="7.01" height="12.76" style="fill:#ebebeb"></rect><rect x="374.33" y="227.49" width="7.01" height="12.76" style="fill:#ebebeb"></rect><rect x="386.74" y="227.49" width="7.01" height="12.76" style="fill:#ebebeb"></rect><rect x="399.16" y="227.49" width="7.01" height="12.76" style="fill:#ebebeb"></rect><rect x="349.49" y="248.23" width="7.01" height="12.76" style="fill:#ebebeb"></rect><rect x="361.91" y="248.23" width="7.01" height="12.76" style="fill:#ebebeb"></rect><rect x="374.33" y="248.23" width="7.01" height="12.76" style="fill:#ebebeb"></rect><rect x="386.74" y="248.23" width="7.01" height="12.76" style="fill:#ebebeb"></rect><rect x="399.16" y="248.23" width="7.01" height="12.76" style="fill:#ebebeb"></rect><rect x="349.49" y="268.97" width="7.01" height="12.76" style="fill:#ebebeb"></rect><rect x="361.91" y="268.97" width="7.01" height="12.76" style="fill:#ebebeb"></rect><rect x="374.33" y="268.97" width="7.01" height="12.76" style="fill:#ebebeb"></rect><rect x="386.74" y="268.97" width="7.01" height="12.76" style="fill:#ebebeb"></rect><rect x="399.16" y="268.97" width="7.01" height="12.76" style="fill:#ebebeb"></rect><rect x="349.49" y="289.72" width="7.01" height="12.76" style="fill:#ebebeb"></rect><rect x="361.91" y="289.72" width="7.01" height="12.76" style="fill:#ebebeb"></rect><rect x="374.33" y="289.72" width="7.01" height="12.76" style="fill:#ebebeb"></rect><rect x="386.74" y="289.72" width="7.01" height="12.76" style="fill:#ebebeb"></rect><rect x="399.16" y="289.72" width="7.01" height="12.76" style="fill:#ebebeb"></rect><rect x="349.49" y="310.46" width="7.01" height="12.76" style="fill:#ebebeb"></rect><rect x="361.91" y="310.46" width="7.01" height="12.76" style="fill:#ebebeb"></rect><rect x="374.33" y="310.46" width="7.01" height="12.76" style="fill:#ebebeb"></rect><rect x="386.74" y="310.46" width="7.01" height="12.76" style="fill:#ebebeb"></rect><rect x="399.16" y="310.46" width="7.01" height="12.76" style="fill:#ebebeb"></rect><rect x="349.49" y="331.2" width="7.01" height="12.76" style="fill:#ebebeb"></rect><rect x="361.91" y="331.2" width="7.01" height="12.76" style="fill:#ebebeb"></rect><rect x="374.33" y="331.2" width="7.01" height="12.76" style="fill:#ebebeb"></rect><rect x="386.74" y="331.2" width="7.01" height="12.76" style="fill:#ebebeb"></rect><rect x="399.16" y="331.2" width="7.01" height="12.76" style="fill:#ebebeb"></rect><rect x="349.49" y="351.94" width="7.01" height="12.76" style="fill:#ebebeb"></rect><rect x="361.91" y="351.94" width="7.01" height="12.76" style="fill:#ebebeb"></rect><rect x="374.33" y="351.94" width="7.01" height="12.76" style="fill:#ebebeb"></rect><rect x="386.74" y="351.94" width="7.01" height="12.76" style="fill:#ebebeb"></rect><rect x="399.16" y="351.94" width="7.01" height="12.76" style="fill:#ebebeb"></rect><rect x="349.49" y="372.69" width="7.01" height="37.33" style="fill:#ebebeb"></rect><rect x="361.91" y="372.69" width="7.01" height="37.33" style="fill:#ebebeb"></rect><rect x="374.33" y="372.69" width="7.01" height="37.33" style="fill:#ebebeb"></rect><rect x="386.74" y="372.69" width="7.01" height="37.33" style="fill:#ebebeb"></rect><rect x="399.16" y="372.69" width="7.01" height="37.33" style="fill:#ebebeb"></rect><rect x="412.43" y="85.34" width="44.42" height="324.68" style="fill:#dbdbdb"></rect><rect x="412.43" y="78.87" width="46.35" height="6.47" style="fill:#c7c7c7"></rect><rect x="418.69" y="94.87" width="7.01" height="315.15" style="fill:#c7c7c7"></rect><rect x="431.1" y="94.87" width="7.01" height="315.15" style="fill:#c7c7c7"></rect><rect x="443.52" y="94.87" width="7.01" height="315.15" style="fill:#c7c7c7"></rect><rect x="418.69" y="103.03" width="7.01" height="12.76" style="fill:#dbdbdb"></rect><rect x="431.1" y="103.03" width="7.01" height="12.76" style="fill:#dbdbdb"></rect><rect x="443.52" y="103.03" width="7.01" height="12.76" style="fill:#dbdbdb"></rect><rect x="418.69" y="123.78" width="7.01" height="12.76" style="fill:#dbdbdb"></rect><rect x="431.1" y="123.78" width="7.01" height="12.76" style="fill:#dbdbdb"></rect><rect x="443.52" y="123.78" width="7.01" height="12.76" style="fill:#dbdbdb"></rect><rect x="418.69" y="144.52" width="7.01" height="12.76" style="fill:#dbdbdb"></rect><rect x="431.1" y="144.52" width="7.01" height="12.76" style="fill:#dbdbdb"></rect><rect x="443.52" y="144.52" width="7.01" height="12.76" style="fill:#dbdbdb"></rect><rect x="418.69" y="165.26" width="7.01" height="12.76" style="fill:#dbdbdb"></rect><rect x="431.1" y="165.26" width="7.01" height="12.76" style="fill:#dbdbdb"></rect><rect x="443.52" y="165.26" width="7.01" height="12.76" style="fill:#dbdbdb"></rect><rect x="418.69" y="186" width="7.01" height="12.76" style="fill:#dbdbdb"></rect><rect x="431.1" y="186" width="7.01" height="12.76" style="fill:#dbdbdb"></rect><rect x="443.52" y="186" width="7.01" height="12.76" style="fill:#dbdbdb"></rect><rect x="418.69" y="206.75" width="7.01" height="12.76" style="fill:#dbdbdb"></rect><rect x="431.1" y="206.75" width="7.01" height="12.76" style="fill:#dbdbdb"></rect><rect x="443.52" y="206.75" width="7.01" height="12.76" style="fill:#dbdbdb"></rect><rect x="418.69" y="227.49" width="7.01" height="12.76" style="fill:#dbdbdb"></rect><rect x="431.1" y="227.49" width="7.01" height="12.76" style="fill:#dbdbdb"></rect><rect x="443.52" y="227.49" width="7.01" height="12.76" style="fill:#dbdbdb"></rect><rect x="418.69" y="248.23" width="7.01" height="12.76" style="fill:#dbdbdb"></rect><rect x="431.1" y="248.23" width="7.01" height="12.76" style="fill:#dbdbdb"></rect><rect x="443.52" y="248.23" width="7.01" height="12.76" style="fill:#dbdbdb"></rect><rect x="418.69" y="268.97" width="7.01" height="12.76" style="fill:#dbdbdb"></rect><rect x="431.1" y="268.97" width="7.01" height="12.76" style="fill:#dbdbdb"></rect><rect x="443.52" y="268.97" width="7.01" height="12.76" style="fill:#dbdbdb"></rect><rect x="418.69" y="289.72" width="7.01" height="12.76" style="fill:#dbdbdb"></rect><rect x="431.1" y="289.72" width="7.01" height="12.76" style="fill:#dbdbdb"></rect><rect x="443.52" y="289.72" width="7.01" height="12.76" style="fill:#dbdbdb"></rect><rect x="418.69" y="310.46" width="7.01" height="12.76" style="fill:#dbdbdb"></rect><rect x="431.1" y="310.46" width="7.01" height="12.76" style="fill:#dbdbdb"></rect><rect x="443.52" y="310.46" width="7.01" height="12.76" style="fill:#dbdbdb"></rect><rect x="418.69" y="331.2" width="7.01" height="12.76" style="fill:#dbdbdb"></rect><rect x="431.1" y="331.2" width="7.01" height="12.76" style="fill:#dbdbdb"></rect><rect x="443.52" y="331.2" width="7.01" height="12.76" style="fill:#dbdbdb"></rect><rect x="418.69" y="351.94" width="7.01" height="12.76" style="fill:#dbdbdb"></rect><rect x="431.1" y="351.94" width="7.01" height="12.76" style="fill:#dbdbdb"></rect><rect x="443.52" y="351.94" width="7.01" height="12.76" style="fill:#dbdbdb"></rect><rect x="418.69" y="372.69" width="7.01" height="37.33" style="fill:#dbdbdb"></rect><rect x="431.1" y="372.69" width="7.01" height="37.33" style="fill:#dbdbdb"></rect><rect x="443.52" y="372.69" width="7.01" height="37.33" style="fill:#dbdbdb"></rect><rect x="38.77" y="194.34" width="56.87" height="215.67" style="fill:#ebebeb"></rect><rect x="46.86" y="180.04" width="48.78" height="14.3" style="fill:#c7c7c7"></rect><rect x="45" y="201.81" width="44.4" height="161.23" style="fill:#dbdbdb"></rect><rect x="45" y="217.2" width="44.4" height="3.81" style="fill:#fff"></rect><rect x="45" y="232.98" width="44.4" height="3.81" style="fill:#fff"></rect><rect x="45" y="248.76" width="44.4" height="3.81" style="fill:#fff"></rect><rect x="45" y="264.54" width="44.4" height="3.81" style="fill:#fff"></rect><rect x="45" y="280.32" width="44.4" height="3.81" style="fill:#fff"></rect><rect x="45" y="296.1" width="44.4" height="3.81" style="fill:#fff"></rect><rect x="45" y="311.88" width="44.4" height="3.81" style="fill:#fff"></rect><rect x="45" y="327.67" width="44.4" height="3.81" style="fill:#fff"></rect><rect x="45" y="343.45" width="44.4" height="3.81" style="fill:#fff"></rect><rect x="45" y="359.23" width="44.4" height="3.81" style="fill:#fff"></rect><rect x="95.64" y="194.34" width="35.62" height="215.67" style="fill:#dbdbdb"></rect><rect x="95.64" y="180.04" width="30.27" height="14.3" style="fill:#a6a6a6"></rect><rect x="100.55" y="201.81" width="27.39" height="161.23" style="fill:#c7c7c7"></rect><rect x="100.55" y="217.2" width="27.39" height="3.81" style="fill:#fff"></rect><rect x="100.55" y="232.98" width="27.39" height="3.81" style="fill:#fff"></rect><rect x="100.55" y="248.76" width="27.39" height="3.81" style="fill:#fff"></rect><rect x="100.55" y="264.54" width="27.39" height="3.81" style="fill:#fff"></rect><rect x="100.55" y="280.32" width="27.39" height="3.81" style="fill:#fff"></rect><rect x="100.55" y="296.1" width="27.39" height="3.81" style="fill:#fff"></rect><rect x="100.55" y="311.88" width="27.39" height="3.81" style="fill:#fff"></rect><rect x="100.55" y="327.67" width="27.39" height="3.81" style="fill:#fff"></rect><rect x="100.55" y="343.45" width="27.39" height="3.81" style="fill:#fff"></rect><rect x="100.55" y="359.23" width="27.39" height="3.81" style="fill:#fff"></rect><rect x="633.97" y="197.98" width="30.37" height="35.88" style="fill:#dbdbdb"></rect><rect x="664.34" y="197.98" width="19.26" height="37.19" style="fill:#c7c7c7"></rect><rect x="665.77" y="213.82" width="19.11" height="21.35" style="fill:#dbdbdb"></rect><rect x="684.88" y="213.82" width="11.92" height="21.35" style="fill:#c7c7c7"></rect><rect x="622.32" y="231.53" width="49.11" height="178.49" style="fill:#ebebeb"></rect><rect x="627.94" y="239.2" width="15.44" height="6.31" style="fill:#fff"></rect><rect x="647.69" y="239.2" width="15.44" height="6.31" style="fill:#fff"></rect><rect x="627.94" y="249.91" width="15.44" height="6.31" style="fill:#fff"></rect><rect x="647.69" y="249.91" width="15.44" height="6.31" style="fill:#fff"></rect><rect x="627.94" y="260.63" width="15.44" height="6.31" style="fill:#fff"></rect><rect x="647.69" y="260.63" width="15.44" height="6.31" style="fill:#fff"></rect><rect x="627.94" y="271.34" width="15.44" height="6.31" style="fill:#fff"></rect><rect x="647.69" y="271.34" width="15.44" height="6.31" style="fill:#fff"></rect><rect x="627.94" y="282.05" width="15.44" height="6.31" style="fill:#fff"></rect><rect x="647.69" y="282.05" width="15.44" height="6.31" style="fill:#fff"></rect><rect x="627.94" y="292.77" width="15.44" height="6.31" style="fill:#fff"></rect><rect x="647.69" y="292.77" width="15.44" height="6.31" style="fill:#fff"></rect><rect x="627.94" y="303.48" width="15.44" height="6.31" style="fill:#fff"></rect><rect x="647.69" y="303.48" width="15.44" height="6.31" style="fill:#fff"></rect><rect x="627.94" y="314.19" width="15.44" height="6.31" style="fill:#fff"></rect><rect x="647.69" y="314.19" width="15.44" height="6.31" style="fill:#fff"></rect><rect x="627.94" y="324.91" width="15.44" height="6.31" style="fill:#fff"></rect><rect x="647.69" y="324.91" width="15.44" height="6.31" style="fill:#fff"></rect><rect x="627.94" y="335.62" width="15.44" height="6.31" style="fill:#fff"></rect><rect x="647.69" y="335.62" width="15.44" height="6.31" style="fill:#fff"></rect><rect x="627.94" y="346.33" width="15.44" height="6.31" style="fill:#fff"></rect><rect x="647.69" y="346.33" width="15.44" height="6.31" style="fill:#fff"></rect><rect x="627.94" y="357.05" width="15.44" height="6.31" style="fill:#fff"></rect><rect x="647.69" y="357.05" width="15.44" height="6.31" style="fill:#fff"></rect><rect x="627.94" y="367.76" width="15.44" height="6.31" style="fill:#fff"></rect><rect x="647.69" y="367.76" width="15.44" height="6.31" style="fill:#fff"></rect><rect x="627.94" y="378.47" width="15.44" height="6.31" style="fill:#fff"></rect><rect x="647.69" y="378.47" width="15.44" height="6.31" style="fill:#fff"></rect><rect x="671.43" y="231.53" width="39.8" height="178.49" style="fill:#c7c7c7"></rect><rect x="694.56" y="378.47" width="12.68" height="6.31" transform="translate(1401.8 763.26) rotate(180)" style="fill:#ebebeb"></rect><rect x="678.34" y="378.47" width="12.68" height="6.31" transform="translate(1369.36 763.26) rotate(180)" style="fill:#ebebeb"></rect><rect x="694.56" y="367.76" width="12.68" height="6.31" transform="translate(1401.8 741.83) rotate(180)" style="fill:#ebebeb"></rect><rect x="678.34" y="367.76" width="12.68" height="6.31" transform="translate(1369.36 741.83) rotate(180)" style="fill:#ebebeb"></rect><rect x="694.56" y="357.05" width="12.68" height="6.31" transform="translate(1401.8 720.41) rotate(180)" style="fill:#ebebeb"></rect><rect x="678.34" y="357.05" width="12.68" height="6.31" transform="translate(1369.36 720.41) rotate(180)" style="fill:#ebebeb"></rect><rect x="694.56" y="346.33" width="12.68" height="6.31" transform="translate(1401.8 698.98) rotate(180)" style="fill:#ebebeb"></rect><rect x="678.34" y="346.33" width="12.68" height="6.31" transform="translate(1369.36 698.98) rotate(180)" style="fill:#ebebeb"></rect><rect x="694.56" y="335.62" width="12.68" height="6.31" transform="translate(1401.8 677.55) rotate(180)" style="fill:#ebebeb"></rect><rect x="678.34" y="335.62" width="12.68" height="6.31" transform="translate(1369.36 677.55) rotate(180)" style="fill:#ebebeb"></rect><rect x="694.56" y="324.91" width="12.68" height="6.31" transform="translate(1401.8 656.12) rotate(180)" style="fill:#ebebeb"></rect><rect x="678.34" y="324.91" width="12.68" height="6.31" transform="translate(1369.36 656.12) rotate(180)" style="fill:#ebebeb"></rect><rect x="694.56" y="314.19" width="12.68" height="6.31" transform="translate(1401.8 634.7) rotate(180)" style="fill:#ebebeb"></rect><rect x="678.34" y="314.19" width="12.68" height="6.31" transform="translate(1369.36 634.7) rotate(180)" style="fill:#ebebeb"></rect><rect x="694.56" y="303.48" width="12.68" height="6.31" transform="translate(1401.8 613.27) rotate(180)" style="fill:#ebebeb"></rect><rect x="678.34" y="303.48" width="12.68" height="6.31" transform="translate(1369.36 613.27) rotate(180)" style="fill:#ebebeb"></rect><rect x="694.56" y="292.77" width="12.68" height="6.31" transform="translate(1401.8 591.84) rotate(180)" style="fill:#ebebeb"></rect><rect x="678.34" y="292.77" width="12.68" height="6.31" transform="translate(1369.36 591.84) rotate(180)" style="fill:#ebebeb"></rect><rect x="694.56" y="282.05" width="12.68" height="6.31" transform="translate(1401.8 570.42) rotate(180)" style="fill:#ebebeb"></rect><rect x="678.34" y="282.05" width="12.68" height="6.31" transform="translate(1369.36 570.42) rotate(180)" style="fill:#ebebeb"></rect><rect x="694.56" y="271.34" width="12.68" height="6.31" transform="translate(1401.8 548.99) rotate(180)" style="fill:#ebebeb"></rect><rect x="678.34" y="271.34" width="12.68" height="6.31" transform="translate(1369.36 548.99) rotate(180)" style="fill:#ebebeb"></rect><rect x="694.56" y="260.63" width="12.68" height="6.31" transform="translate(1401.8 527.56) rotate(180)" style="fill:#ebebeb"></rect><rect x="678.34" y="260.63" width="12.68" height="6.31" transform="translate(1369.36 527.56) rotate(180)" style="fill:#ebebeb"></rect><rect x="694.56" y="249.91" width="12.68" height="6.31" transform="translate(1401.8 506.13) rotate(180)" style="fill:#ebebeb"></rect><rect x="678.34" y="249.91" width="12.68" height="6.31" transform="translate(1369.36 506.13) rotate(180)" style="fill:#ebebeb"></rect><rect x="694.56" y="239.2" width="12.68" height="6.31" transform="translate(1401.8 484.71) rotate(180)" style="fill:#ebebeb"></rect><rect x="678.34" y="239.2" width="12.68" height="6.31" transform="translate(1369.36 484.71) rotate(180)" style="fill:#ebebeb"></rect><rect x="246.47" y="293.71" width="57.93" height="116.31" style="fill:#c7c7c7"></rect><rect x="255.58" y="303.78" width="10.25" height="7.13" style="fill:#dbdbdb"></rect><rect x="255.58" y="319" width="10.25" height="7.13" style="fill:#dbdbdb"></rect><rect x="255.58" y="334.22" width="10.25" height="7.13" style="fill:#dbdbdb"></rect><rect x="255.58" y="349.44" width="10.25" height="7.13" style="fill:#dbdbdb"></rect><rect x="255.58" y="364.66" width="10.25" height="7.13" style="fill:#dbdbdb"></rect><rect x="255.58" y="379.88" width="10.25" height="7.13" style="fill:#dbdbdb"></rect><rect x="255.58" y="395.1" width="10.25" height="7.13" style="fill:#dbdbdb"></rect><rect x="270.33" y="303.78" width="10.25" height="7.13" style="fill:#dbdbdb"></rect><rect x="270.33" y="319" width="10.25" height="7.13" style="fill:#dbdbdb"></rect><rect x="270.33" y="334.22" width="10.25" height="7.13" style="fill:#dbdbdb"></rect><rect x="270.33" y="349.44" width="10.25" height="7.13" style="fill:#dbdbdb"></rect><rect x="270.33" y="364.66" width="10.25" height="7.13" style="fill:#dbdbdb"></rect><rect x="270.33" y="379.88" width="10.25" height="7.13" style="fill:#dbdbdb"></rect><rect x="270.33" y="395.1" width="10.25" height="7.13" style="fill:#dbdbdb"></rect><rect x="285.04" y="303.78" width="10.25" height="7.13" style="fill:#dbdbdb"></rect><rect x="285.04" y="319" width="10.25" height="7.13" style="fill:#dbdbdb"></rect><rect x="285.04" y="334.22" width="10.25" height="7.13" style="fill:#dbdbdb"></rect><rect x="285.04" y="349.44" width="10.25" height="7.13" style="fill:#dbdbdb"></rect><rect x="285.04" y="364.66" width="10.25" height="7.13" style="fill:#dbdbdb"></rect><rect x="285.04" y="379.88" width="10.25" height="7.13" style="fill:#dbdbdb"></rect><rect x="285.04" y="395.1" width="10.25" height="7.13" style="fill:#dbdbdb"></rect><rect x="265.83" y="281.59" width="38.57" height="12.12" style="fill:#dbdbdb"></rect><rect x="279.95" y="274.09" width="24.45" height="7.5" style="fill:#ebebeb"></rect><rect x="304.4" y="293.71" width="40.64" height="116.31" style="fill:#a6a6a6"></rect><rect x="332.54" y="393.96" width="8.34" height="7.13" transform="translate(673.42 795.04) rotate(180)" style="fill:#c7c7c7"></rect><rect x="332.54" y="378.74" width="8.34" height="7.13" transform="translate(673.42 764.6) rotate(180)" style="fill:#c7c7c7"></rect><rect x="332.54" y="363.52" width="8.34" height="7.13" transform="translate(673.42 734.16) rotate(180)" style="fill:#c7c7c7"></rect><rect x="332.54" y="348.3" width="8.34" height="7.13" transform="translate(673.42 703.73) rotate(180)" style="fill:#c7c7c7"></rect><rect x="332.54" y="333.08" width="8.34" height="7.13" transform="translate(673.42 673.29) rotate(180)" style="fill:#c7c7c7"></rect><rect x="332.54" y="317.86" width="8.34" height="7.13" transform="translate(673.42 642.85) rotate(180)" style="fill:#c7c7c7"></rect><rect x="332.54" y="302.64" width="8.34" height="7.13" transform="translate(673.42 612.41) rotate(180)" style="fill:#c7c7c7"></rect><rect x="320.53" y="393.96" width="8.34" height="7.13" transform="translate(649.41 795.04) rotate(180)" style="fill:#c7c7c7"></rect><rect x="320.53" y="378.74" width="8.34" height="7.13" transform="translate(649.41 764.6) rotate(180)" style="fill:#c7c7c7"></rect><rect x="320.53" y="363.52" width="8.34" height="7.13" transform="translate(649.41 734.16) rotate(180)" style="fill:#c7c7c7"></rect><rect x="320.53" y="348.3" width="8.34" height="7.13" transform="translate(649.41 703.73) rotate(180)" style="fill:#c7c7c7"></rect><rect x="320.53" y="333.08" width="8.34" height="7.13" transform="translate(649.41 673.29) rotate(180)" style="fill:#c7c7c7"></rect><rect x="320.53" y="317.86" width="8.34" height="7.13" transform="translate(649.41 642.85) rotate(180)" style="fill:#c7c7c7"></rect><rect x="320.53" y="302.64" width="8.34" height="7.13" transform="translate(649.41 612.41) rotate(180)" style="fill:#c7c7c7"></rect><rect x="308.56" y="393.96" width="8.34" height="7.13" transform="translate(625.47 795.04) rotate(180)" style="fill:#c7c7c7"></rect><rect x="308.56" y="378.74" width="8.34" height="7.13" transform="translate(625.47 764.6) rotate(180)" style="fill:#c7c7c7"></rect><rect x="308.56" y="363.52" width="8.34" height="7.13" transform="translate(625.47 734.16) rotate(180)" style="fill:#c7c7c7"></rect><rect x="308.56" y="348.3" width="8.34" height="7.13" transform="translate(625.47 703.73) rotate(180)" style="fill:#c7c7c7"></rect><rect x="308.56" y="333.08" width="8.34" height="7.13" transform="translate(625.47 673.29) rotate(180)" style="fill:#c7c7c7"></rect><rect x="308.56" y="317.86" width="8.34" height="7.13" transform="translate(625.47 642.85) rotate(180)" style="fill:#c7c7c7"></rect><rect x="308.56" y="302.64" width="8.34" height="7.13" transform="translate(625.47 612.41) rotate(180)" style="fill:#c7c7c7"></rect><rect x="304.4" y="281.59" width="34.49" height="12.12" style="fill:#c7c7c7"></rect><rect x="304.4" y="274.09" width="18.69" height="7.5" style="fill:#dbdbdb"></rect></g><g id="freepik--City--inject-23"><polygon points="218.15 410.02 160.92 410.02 160.92 230.49 218.15 193.4 218.15 410.02" style="fill:#FFC93A"></polygon><polygon points="210.8 410.02 167.36 410.02 167.36 235.51 210.8 207.36 210.8 410.02" style="fill:#FFC93A"></polygon><polygon points="210.8 410.02 167.36 410.02 167.36 235.51 210.8 207.36 210.8 410.02" style="opacity:0.2"></polygon><rect x="172.34" y="238.53" width="38.46" height="1.38" style="fill:#FFC93A"></rect><rect x="172.34" y="249.87" width="38.46" height="1.38" style="fill:#FFC93A"></rect><rect x="172.34" y="261.21" width="38.46" height="1.38" style="fill:#FFC93A"></rect><rect x="172.34" y="272.55" width="38.46" height="1.38" style="fill:#FFC93A"></rect><rect x="172.34" y="283.89" width="38.46" height="1.38" style="fill:#FFC93A"></rect><rect x="172.34" y="295.23" width="38.46" height="1.38" style="fill:#FFC93A"></rect><rect x="172.34" y="306.57" width="38.46" height="1.38" style="fill:#FFC93A"></rect><rect x="172.34" y="317.91" width="38.46" height="1.38" style="fill:#FFC93A"></rect><rect x="172.34" y="329.25" width="38.46" height="1.38" style="fill:#FFC93A"></rect><rect x="172.34" y="340.59" width="38.46" height="1.38" style="fill:#FFC93A"></rect><rect x="172.34" y="351.93" width="38.46" height="1.38" style="fill:#FFC93A"></rect><rect x="172.34" y="363.27" width="38.46" height="1.38" style="fill:#FFC93A"></rect><rect x="172.34" y="374.61" width="38.46" height="1.38" style="fill:#FFC93A"></rect><rect x="172.34" y="385.95" width="38.46" height="1.38" style="fill:#FFC93A"></rect><rect x="172.34" y="397.29" width="38.46" height="1.38" style="fill:#FFC93A"></rect><rect x="172.34" y="408.63" width="38.46" height="1.38" style="fill:#FFC93A"></rect><rect x="99.23" y="316.99" width="184.66" height="1.38" transform="translate(-126.12 509.25) rotate(-90)" style="fill:#FFC93A"></rect><polygon points="210.8 207.36 210.8 213.6 172.34 238.53 172.34 410.02 167.37 410.02 167.37 235.5 210.8 207.36" style="fill:#FFC93A"></polygon><polygon points="210.8 207.36 210.8 213.6 172.34 238.53 172.34 410.02 167.37 410.02 167.37 235.5 210.8 207.36" style="opacity:0.1"></polygon><rect x="218.15" y="193.4" width="50.42" height="216.62" style="fill:#FFC93A"></rect><rect x="218.15" y="193.4" width="50.42" height="216.62" style="opacity:0.2"></rect><g style="opacity:0.2"><rect x="223.04" y="207.36" width="40.63" height="4.9"></rect><rect x="223.04" y="218.47" width="40.63" height="4.9"></rect><rect x="223.04" y="229.58" width="40.63" height="4.9"></rect><rect x="223.04" y="240.68" width="40.63" height="4.9"></rect><rect x="223.04" y="251.79" width="40.63" height="4.9"></rect><rect x="223.04" y="262.9" width="40.63" height="4.9"></rect><rect x="223.04" y="274.01" width="40.63" height="4.9"></rect><rect x="223.04" y="285.12" width="40.63" height="4.9"></rect><rect x="223.04" y="296.23" width="40.63" height="4.9"></rect><rect x="223.04" y="307.34" width="40.63" height="4.9"></rect><rect x="223.04" y="318.45" width="40.63" height="4.9"></rect><rect x="223.04" y="329.55" width="40.63" height="4.9"></rect><rect x="223.04" y="340.66" width="40.63" height="4.9"></rect><rect x="223.04" y="351.77" width="40.63" height="4.9"></rect><rect x="223.04" y="362.88" width="40.63" height="4.9"></rect><rect x="223.04" y="373.99" width="40.63" height="4.9"></rect><rect x="223.04" y="385.1" width="40.63" height="4.9"></rect><rect x="223.04" y="396.21" width="40.63" height="4.9"></rect></g><rect x="583.61" y="198.68" width="68.83" height="211.34" style="fill:#455a64"></rect><rect x="600.68" y="177.42" width="51.5" height="21.26" style="fill:#37474f"></rect><rect x="604.97" y="180.7" width="4.4" height="14.7" style="fill:#455a64"></rect><rect x="612.67" y="180.7" width="4.4" height="14.7" style="fill:#455a64"></rect><rect x="620.38" y="180.7" width="4.4" height="14.7" style="fill:#455a64"></rect><rect x="628.08" y="180.7" width="4.4" height="14.7" style="fill:#455a64"></rect><rect x="635.79" y="180.7" width="4.4" height="14.7" style="fill:#455a64"></rect><rect x="643.49" y="180.7" width="4.4" height="14.7" style="fill:#455a64"></rect><rect x="652.18" y="177.42" width="23.42" height="21.26" style="fill:#455a64"></rect><rect x="655.47" y="180.7" width="3.75" height="14.7" style="fill:#37474f"></rect><rect x="662.02" y="180.7" width="3.75" height="14.7" style="fill:#37474f"></rect><rect x="668.57" y="180.7" width="3.75" height="14.7" style="fill:#37474f"></rect><rect x="652.18" y="198.68" width="35.03" height="211.34" style="fill:#37474f"></rect><rect x="610.45" y="166.64" width="1.58" height="10.77" style="fill:#263238"></rect><rect x="640.84" y="166.64" width="1.58" height="10.77" style="fill:#263238"></rect><rect x="603.47" y="147.81" width="45.93" height="18.84" style="fill:#FFC93A"></rect><rect x="597.7" y="213.23" width="12.7" height="19.45" style="fill:#263238"></rect><rect x="623.56" y="213.23" width="12.7" height="19.45" style="fill:#263238"></rect><rect x="597.7" y="243.89" width="12.7" height="19.45" style="fill:#263238"></rect><rect x="623.56" y="243.89" width="12.7" height="19.45" style="fill:#263238"></rect><rect x="597.7" y="274.54" width="12.7" height="19.45" style="fill:#263238"></rect><rect x="623.56" y="274.54" width="12.7" height="19.45" style="fill:#263238"></rect><rect x="597.7" y="305.2" width="12.7" height="19.45" style="fill:#263238"></rect><rect x="623.56" y="305.2" width="12.7" height="19.45" style="fill:#263238"></rect><rect x="597.7" y="335.86" width="12.7" height="19.45" style="fill:#263238"></rect><rect x="623.56" y="335.86" width="12.7" height="19.45" style="fill:#263238"></rect><rect x="597.7" y="366.51" width="12.7" height="19.45" style="fill:#263238"></rect><rect x="623.56" y="366.51" width="12.7" height="19.45" style="fill:#263238"></rect><rect x="658.62" y="213.23" width="7.3" height="19.45" style="fill:#263238"></rect><rect x="673.48" y="213.23" width="7.3" height="19.45" style="fill:#263238"></rect><rect x="658.62" y="243.89" width="7.3" height="19.45" style="fill:#263238"></rect><rect x="673.48" y="243.89" width="7.3" height="19.45" style="fill:#263238"></rect><rect x="658.62" y="274.54" width="7.3" height="19.45" style="fill:#263238"></rect><rect x="673.48" y="274.54" width="7.3" height="19.45" style="fill:#263238"></rect><rect x="658.62" y="305.2" width="7.3" height="19.45" style="fill:#263238"></rect><rect x="673.48" y="305.2" width="7.3" height="19.45" style="fill:#263238"></rect><rect x="658.62" y="335.86" width="7.3" height="19.45" style="fill:#263238"></rect><rect x="673.48" y="335.86" width="7.3" height="19.45" style="fill:#263238"></rect><rect x="658.62" y="366.51" width="7.3" height="19.45" style="fill:#263238"></rect><rect x="673.48" y="366.51" width="7.3" height="19.45" style="fill:#263238"></rect><rect x="137.19" y="125.12" width="43.53" height="284.9" style="fill:#37474f"></rect><rect x="137.19" y="141.08" width="43.53" height="2.99" style="fill:#455a64"></rect><rect x="141.68" y="152.87" width="8.01" height="16.66" style="fill:#263238"></rect><rect x="141.68" y="173.89" width="8.01" height="16.66" style="fill:#263238"></rect><rect x="141.68" y="194.91" width="8.01" height="16.66" style="fill:#263238"></rect><rect x="141.68" y="215.91" width="8.01" height="16.66" style="fill:#263238"></rect><rect x="141.68" y="236.93" width="8.01" height="16.66" style="fill:#263238"></rect><rect x="141.68" y="257.95" width="8.01" height="16.66" style="fill:#263238"></rect><rect x="141.68" y="278.95" width="8.01" height="16.66" style="fill:#263238"></rect><rect x="141.68" y="299.97" width="8.01" height="16.66" style="fill:#263238"></rect><rect x="141.68" y="320.99" width="8.01" height="16.66" style="fill:#263238"></rect><rect x="141.68" y="341.99" width="8.01" height="16.66" style="fill:#263238"></rect><rect x="141.68" y="363.01" width="8.01" height="16.66" style="fill:#263238"></rect><rect x="141.68" y="384.03" width="8.01" height="16.66" style="fill:#263238"></rect><rect x="141.68" y="152.87" width="8.01" height="16.66" style="fill:#263238"></rect><rect x="141.68" y="173.89" width="8.01" height="16.66" style="fill:#263238"></rect><rect x="141.68" y="194.91" width="8.01" height="16.66" style="fill:#263238"></rect><rect x="141.68" y="215.91" width="8.01" height="16.66" style="fill:#263238"></rect><rect x="141.68" y="236.93" width="8.01" height="16.66" style="fill:#263238"></rect><rect x="141.68" y="257.95" width="8.01" height="16.66" style="fill:#263238"></rect><rect x="141.68" y="278.95" width="8.01" height="16.66" style="fill:#263238"></rect><rect x="141.68" y="299.97" width="8.01" height="16.66" style="fill:#263238"></rect><rect x="141.68" y="320.99" width="8.01" height="16.66" style="fill:#263238"></rect><rect x="141.68" y="341.99" width="8.01" height="16.66" style="fill:#263238"></rect><rect x="141.68" y="363.01" width="8.01" height="16.66" style="fill:#263238"></rect><rect x="141.68" y="384.03" width="8.01" height="16.66" style="fill:#263238"></rect><rect x="154.95" y="152.87" width="8.01" height="16.66" style="fill:#263238"></rect><rect x="154.95" y="173.89" width="8.01" height="16.66" style="fill:#263238"></rect><rect x="154.95" y="194.91" width="8.01" height="16.66" style="fill:#263238"></rect><rect x="154.95" y="215.91" width="8.01" height="16.66" style="fill:#263238"></rect><rect x="154.95" y="236.93" width="8.01" height="16.66" style="fill:#263238"></rect><rect x="154.95" y="257.95" width="8.01" height="16.66" style="fill:#263238"></rect><rect x="154.95" y="278.95" width="8.01" height="16.66" style="fill:#263238"></rect><rect x="154.95" y="299.97" width="8.01" height="16.66" style="fill:#263238"></rect><rect x="154.95" y="320.99" width="8.01" height="16.66" style="fill:#263238"></rect><rect x="154.95" y="341.99" width="8.01" height="16.66" style="fill:#263238"></rect><rect x="154.95" y="363.01" width="8.01" height="16.66" style="fill:#263238"></rect><rect x="154.95" y="384.03" width="8.01" height="16.66" style="fill:#263238"></rect><rect x="154.95" y="152.87" width="8.01" height="16.66" style="fill:#263238"></rect><rect x="154.95" y="173.89" width="8.01" height="16.66" style="fill:#263238"></rect><rect x="154.95" y="194.91" width="8.01" height="16.66" style="fill:#263238"></rect><rect x="154.95" y="215.91" width="8.01" height="16.66" style="fill:#263238"></rect><rect x="154.95" y="236.93" width="8.01" height="16.66" style="fill:#263238"></rect><rect x="154.95" y="257.95" width="8.01" height="16.66" style="fill:#263238"></rect><rect x="154.95" y="278.95" width="8.01" height="16.66" style="fill:#263238"></rect><rect x="154.95" y="299.97" width="8.01" height="16.66" style="fill:#263238"></rect><rect x="154.95" y="320.99" width="8.01" height="16.66" style="fill:#263238"></rect><rect x="154.95" y="341.99" width="8.01" height="16.66" style="fill:#263238"></rect><rect x="154.95" y="363.01" width="8.01" height="16.66" style="fill:#263238"></rect><rect x="154.95" y="384.03" width="8.01" height="16.66" style="fill:#263238"></rect><rect x="168.22" y="152.87" width="8.01" height="16.66" style="fill:#263238"></rect><rect x="168.22" y="173.89" width="8.01" height="16.66" style="fill:#263238"></rect><rect x="168.22" y="194.91" width="8.01" height="16.66" style="fill:#263238"></rect><rect x="168.22" y="215.91" width="8.01" height="16.66" style="fill:#263238"></rect><rect x="168.22" y="236.93" width="8.01" height="16.66" style="fill:#263238"></rect><rect x="168.22" y="257.95" width="8.01" height="16.66" style="fill:#263238"></rect><rect x="168.22" y="278.95" width="8.01" height="16.66" style="fill:#263238"></rect><rect x="168.22" y="299.97" width="8.01" height="16.66" style="fill:#263238"></rect><rect x="168.22" y="320.99" width="8.01" height="16.66" style="fill:#263238"></rect><rect x="168.22" y="341.99" width="8.01" height="16.66" style="fill:#263238"></rect><rect x="168.22" y="363.01" width="8.01" height="16.66" style="fill:#263238"></rect><rect x="168.22" y="384.03" width="8.01" height="16.66" style="fill:#263238"></rect><rect x="168.22" y="152.87" width="8.01" height="16.66" style="fill:#263238"></rect><rect x="168.22" y="173.89" width="8.01" height="16.66" style="fill:#263238"></rect><rect x="168.22" y="194.91" width="8.01" height="16.66" style="fill:#263238"></rect><rect x="168.22" y="215.91" width="8.01" height="16.66" style="fill:#263238"></rect><rect x="168.22" y="236.93" width="8.01" height="16.66" style="fill:#263238"></rect><rect x="168.22" y="257.95" width="8.01" height="16.66" style="fill:#263238"></rect><rect x="168.22" y="278.95" width="8.01" height="16.66" style="fill:#263238"></rect><rect x="168.22" y="299.97" width="8.01" height="16.66" style="fill:#263238"></rect><rect x="168.22" y="320.99" width="8.01" height="16.66" style="fill:#263238"></rect><rect x="168.22" y="341.99" width="8.01" height="16.66" style="fill:#263238"></rect><rect x="168.22" y="363.01" width="8.01" height="16.66" style="fill:#263238"></rect><rect x="168.22" y="384.03" width="8.01" height="16.66" style="fill:#263238"></rect><rect x="62.78" y="125.12" width="74.41" height="284.9" style="fill:#455a64"></rect><rect x="62.78" y="141.08" width="74.41" height="2.99" style="fill:#37474f"></rect><rect x="89.31" y="109.11" width="47.89" height="16.01" style="fill:#37474f"></rect><rect x="137.19" y="109.11" width="22.5" height="16.01" transform="translate(296.89 234.23) rotate(180)" style="fill:#263238"></rect><rect x="70.76" y="152.87" width="13.01" height="16.66" style="fill:#263238"></rect><rect x="70.76" y="173.89" width="13.01" height="16.66" style="fill:#263238"></rect><rect x="70.76" y="194.91" width="13.01" height="16.66" style="fill:#263238"></rect><rect x="70.76" y="215.91" width="13.01" height="16.66" style="fill:#263238"></rect><rect x="70.76" y="236.93" width="13.01" height="16.66" style="fill:#263238"></rect><rect x="70.76" y="257.95" width="13.01" height="16.66" style="fill:#263238"></rect><rect x="70.76" y="278.95" width="13.01" height="16.66" style="fill:#263238"></rect><rect x="70.76" y="299.97" width="13.01" height="16.66" style="fill:#263238"></rect><rect x="70.76" y="320.99" width="13.01" height="16.66" style="fill:#263238"></rect><rect x="70.76" y="341.99" width="13.01" height="16.66" style="fill:#263238"></rect><rect x="70.76" y="363.01" width="13.01" height="16.66" style="fill:#263238"></rect><rect x="70.76" y="384.03" width="13.01" height="16.66" style="fill:#263238"></rect><rect x="70.76" y="152.87" width="13.01" height="16.66" style="fill:#263238"></rect><rect x="70.76" y="173.89" width="13.01" height="16.66" style="fill:#263238"></rect><rect x="70.76" y="194.91" width="13.01" height="16.66" style="fill:#263238"></rect><rect x="70.76" y="215.91" width="13.01" height="16.66" style="fill:#263238"></rect><rect x="70.76" y="236.93" width="13.01" height="16.66" style="fill:#263238"></rect><rect x="70.76" y="257.95" width="13.01" height="16.66" style="fill:#263238"></rect><rect x="70.76" y="278.95" width="13.01" height="16.66" style="fill:#263238"></rect><rect x="70.76" y="299.97" width="13.01" height="16.66" style="fill:#263238"></rect><rect x="70.76" y="320.99" width="13.01" height="16.66" style="fill:#263238"></rect><rect x="70.76" y="341.99" width="13.01" height="16.66" style="fill:#263238"></rect><rect x="70.76" y="363.01" width="13.01" height="16.66" style="fill:#263238"></rect><rect x="70.76" y="384.03" width="13.01" height="16.66" style="fill:#263238"></rect><rect x="92.3" y="152.87" width="13.01" height="16.66" style="fill:#263238"></rect><rect x="92.3" y="173.89" width="13.01" height="16.66" style="fill:#263238"></rect><rect x="92.3" y="194.91" width="13.01" height="16.66" style="fill:#263238"></rect><rect x="92.3" y="215.91" width="13.01" height="16.66" style="fill:#263238"></rect><rect x="92.3" y="236.93" width="13.01" height="16.66" style="fill:#263238"></rect><rect x="92.3" y="257.95" width="13.01" height="16.66" style="fill:#263238"></rect><rect x="92.3" y="278.95" width="13.01" height="16.66" style="fill:#263238"></rect><rect x="92.3" y="299.97" width="13.01" height="16.66" style="fill:#263238"></rect><rect x="92.3" y="320.99" width="13.01" height="16.66" style="fill:#263238"></rect><rect x="92.3" y="341.99" width="13.01" height="16.66" style="fill:#263238"></rect><rect x="92.3" y="363.01" width="13.01" height="16.66" style="fill:#263238"></rect><rect x="92.3" y="384.03" width="13.01" height="16.66" style="fill:#263238"></rect><rect x="92.3" y="152.87" width="13.01" height="16.66" style="fill:#263238"></rect><rect x="92.3" y="173.89" width="13.01" height="16.66" style="fill:#263238"></rect><rect x="92.3" y="194.91" width="13.01" height="16.66" style="fill:#263238"></rect><rect x="92.3" y="215.91" width="13.01" height="16.66" style="fill:#263238"></rect><rect x="92.3" y="236.93" width="13.01" height="16.66" style="fill:#263238"></rect><rect x="92.3" y="257.95" width="13.01" height="16.66" style="fill:#263238"></rect><rect x="92.3" y="278.95" width="13.01" height="16.66" style="fill:#263238"></rect><rect x="92.3" y="299.97" width="13.01" height="16.66" style="fill:#263238"></rect><rect x="92.3" y="320.99" width="13.01" height="16.66" style="fill:#263238"></rect><rect x="92.3" y="341.99" width="13.01" height="16.66" style="fill:#263238"></rect><rect x="92.3" y="363.01" width="13.01" height="16.66" style="fill:#263238"></rect><rect x="92.3" y="384.03" width="13.01" height="16.66" style="fill:#263238"></rect><rect x="113.85" y="152.87" width="13.01" height="16.66" style="fill:#263238"></rect><rect x="113.85" y="173.89" width="13.01" height="16.66" style="fill:#263238"></rect><rect x="113.85" y="194.91" width="13.01" height="16.66" style="fill:#263238"></rect><rect x="113.85" y="215.91" width="13.01" height="16.66" style="fill:#263238"></rect><rect x="113.85" y="236.93" width="13.01" height="16.66" style="fill:#263238"></rect><rect x="113.85" y="257.95" width="13.01" height="16.66" style="fill:#263238"></rect><rect x="113.85" y="278.95" width="13.01" height="16.66" style="fill:#263238"></rect><rect x="113.85" y="299.97" width="13.01" height="16.66" style="fill:#263238"></rect><rect x="113.85" y="320.99" width="13.01" height="16.66" style="fill:#263238"></rect><rect x="113.85" y="341.99" width="13.01" height="16.66" style="fill:#263238"></rect><rect x="113.85" y="363.01" width="13.01" height="16.66" style="fill:#263238"></rect><rect x="113.85" y="384.03" width="13.01" height="16.66" style="fill:#263238"></rect><rect x="113.85" y="152.87" width="13.01" height="16.66" style="fill:#263238"></rect><rect x="113.85" y="173.89" width="13.01" height="16.66" style="fill:#263238"></rect><rect x="113.85" y="194.91" width="13.01" height="16.66" style="fill:#263238"></rect><rect x="113.85" y="215.91" width="13.01" height="16.66" style="fill:#263238"></rect><rect x="113.85" y="236.93" width="13.01" height="16.66" style="fill:#263238"></rect><rect x="113.85" y="257.95" width="13.01" height="16.66" style="fill:#263238"></rect><rect x="113.85" y="278.95" width="13.01" height="16.66" style="fill:#263238"></rect><rect x="113.85" y="299.97" width="13.01" height="16.66" style="fill:#263238"></rect><rect x="113.85" y="320.99" width="13.01" height="16.66" style="fill:#263238"></rect><rect x="113.85" y="341.99" width="13.01" height="16.66" style="fill:#263238"></rect><rect x="113.85" y="363.01" width="13.01" height="16.66" style="fill:#263238"></rect><rect x="113.85" y="384.03" width="13.01" height="16.66" style="fill:#263238"></rect><rect x="522.05" y="180.66" width="45.37" height="229.36" style="fill:#FFC93A"></rect><rect x="522.05" y="180.66" width="45.37" height="229.36" style="opacity:0.2"></rect><rect x="522.05" y="173.14" width="48.08" height="7.52" transform="translate(1092.19 353.8) rotate(180)" style="fill:#FFC93A"></rect><rect x="522.05" y="161.41" width="40.76" height="11.73" transform="translate(1084.87 334.55) rotate(180)" style="fill:#FFC93A"></rect><rect x="522.05" y="161.41" width="40.76" height="11.73" transform="translate(1084.87 334.55) rotate(180)" style="opacity:0.2"></rect><rect x="522.05" y="135.53" width="31.19" height="25.88" transform="translate(1075.29 296.94) rotate(180)" style="fill:#FFC93A"></rect><rect x="522.05" y="135.53" width="31.19" height="25.88" transform="translate(1075.29 296.94) rotate(180)" style="opacity:0.30000000000000004"></rect><g style="opacity:0.30000000000000004"><rect x="526.4" y="189.35" width="6.15" height="24.12"></rect></g><g style="opacity:0.30000000000000004"><rect x="526.4" y="222.22" width="6.15" height="24.12"></rect></g><g style="opacity:0.30000000000000004"><rect x="526.4" y="255.08" width="6.15" height="24.12"></rect></g><g style="opacity:0.30000000000000004"><rect x="526.4" y="287.95" width="6.15" height="24.12"></rect></g><g style="opacity:0.30000000000000004"><rect x="526.4" y="320.81" width="6.15" height="24.12"></rect></g><g style="opacity:0.30000000000000004"><rect x="526.4" y="353.68" width="6.15" height="24.12"></rect></g><g style="opacity:0.30000000000000004"><rect x="536.57" y="189.35" width="6.15" height="24.12"></rect></g><g style="opacity:0.30000000000000004"><rect x="536.57" y="222.22" width="6.15" height="24.12"></rect></g><g style="opacity:0.30000000000000004"><rect x="536.57" y="255.08" width="6.15" height="24.12"></rect></g><g style="opacity:0.30000000000000004"><rect x="536.57" y="287.95" width="6.15" height="24.12"></rect></g><g style="opacity:0.30000000000000004"><rect x="536.57" y="320.81" width="6.15" height="24.12"></rect></g><g style="opacity:0.30000000000000004"><rect x="536.57" y="353.68" width="6.15" height="24.12"></rect></g><g style="opacity:0.30000000000000004"><rect x="546.75" y="189.35" width="6.15" height="24.12"></rect></g><g style="opacity:0.30000000000000004"><rect x="546.75" y="222.22" width="6.15" height="24.12"></rect></g><g style="opacity:0.30000000000000004"><rect x="546.75" y="255.08" width="6.15" height="24.12"></rect></g><g style="opacity:0.30000000000000004"><rect x="546.75" y="287.95" width="6.15" height="24.12"></rect></g><g style="opacity:0.30000000000000004"><rect x="546.75" y="320.81" width="6.15" height="24.12"></rect></g><g style="opacity:0.30000000000000004"><rect x="546.75" y="353.68" width="6.15" height="24.12"></rect></g><g style="opacity:0.30000000000000004"><rect x="556.92" y="189.35" width="6.15" height="24.12"></rect></g><g style="opacity:0.30000000000000004"><rect x="556.92" y="222.22" width="6.15" height="24.12"></rect></g><g style="opacity:0.30000000000000004"><rect x="556.92" y="255.08" width="6.15" height="24.12"></rect></g><g style="opacity:0.30000000000000004"><rect x="556.92" y="287.95" width="6.15" height="24.12"></rect></g><g style="opacity:0.30000000000000004"><rect x="556.92" y="320.81" width="6.15" height="24.12"></rect></g><g style="opacity:0.30000000000000004"><rect x="556.92" y="353.68" width="6.15" height="24.12"></rect></g><rect x="429.06" y="180.66" width="92.99" height="229.36" style="fill:#FFC93A"></rect><rect x="433.52" y="161.41" width="88.54" height="11.73" style="fill:#FFC93A"></rect><rect x="455.43" y="135.53" width="66.62" height="25.88" style="fill:#FFC93A"></rect><rect x="455.43" y="135.53" width="66.62" height="25.88" style="opacity:0.2"></rect><rect x="426.28" y="173.14" width="95.77" height="7.52" style="fill:#FFC93A"></rect><rect x="426.28" y="173.14" width="95.77" height="7.52" style="opacity:0.2"></rect><g style="opacity:0.1"><rect x="437.95" y="189.35" width="12.62" height="24.12"></rect></g><g style="opacity:0.1"><rect x="437.95" y="222.22" width="12.62" height="24.12"></rect></g><g style="opacity:0.1"><rect x="437.95" y="255.08" width="12.62" height="24.12"></rect></g><g style="opacity:0.1"><rect x="437.95" y="287.95" width="12.62" height="24.12"></rect></g><g style="opacity:0.1"><rect x="437.95" y="320.81" width="12.62" height="24.12"></rect></g><g style="opacity:0.1"><rect x="437.95" y="353.68" width="12.62" height="24.12"></rect></g><g style="opacity:0.1"><rect x="458.82" y="189.35" width="12.62" height="24.12"></rect></g><g style="opacity:0.1"><rect x="458.82" y="222.22" width="12.62" height="24.12"></rect></g><g style="opacity:0.1"><rect x="458.82" y="255.08" width="12.62" height="24.12"></rect></g><g style="opacity:0.1"><rect x="458.82" y="287.95" width="12.62" height="24.12"></rect></g><g style="opacity:0.1"><rect x="458.82" y="320.81" width="12.62" height="24.12"></rect></g><g style="opacity:0.1"><rect x="458.82" y="353.68" width="12.62" height="24.12"></rect></g><g style="opacity:0.1"><rect x="479.68" y="189.35" width="12.62" height="24.12"></rect></g><g style="opacity:0.1"><rect x="479.68" y="222.22" width="12.62" height="24.12"></rect></g><g style="opacity:0.1"><rect x="479.68" y="255.08" width="12.62" height="24.12"></rect></g><g style="opacity:0.1"><rect x="479.68" y="287.95" width="12.62" height="24.12"></rect></g><g style="opacity:0.1"><rect x="479.68" y="320.81" width="12.62" height="24.12"></rect></g><g style="opacity:0.1"><rect x="479.68" y="353.68" width="12.62" height="24.12"></rect></g><g style="opacity:0.1"><rect x="500.54" y="189.35" width="12.62" height="24.12"></rect></g><g style="opacity:0.1"><rect x="500.54" y="222.22" width="12.62" height="24.12"></rect></g><g style="opacity:0.1"><rect x="500.54" y="255.08" width="12.62" height="24.12"></rect></g><g style="opacity:0.1"><rect x="500.54" y="287.95" width="12.62" height="24.12"></rect></g><g style="opacity:0.1"><rect x="500.54" y="320.81" width="12.62" height="24.12"></rect></g><g style="opacity:0.1"><rect x="500.54" y="353.68" width="12.62" height="24.12"></rect></g><rect x="458.82" y="387.28" width="33.48" height="22.73" style="opacity:0.30000000000000004"></rect><rect x="615.13" y="279.23" width="45.37" height="130.79" style="fill:#FFC93A"></rect><rect x="615.13" y="279.23" width="45.37" height="130.79" style="opacity:0.2"></rect><rect x="615.13" y="271.71" width="48.08" height="7.52" transform="translate(1278.33 550.94) rotate(180)" style="fill:#FFC93A"></rect><rect x="615.13" y="259.98" width="40.76" height="11.73" transform="translate(1271.01 531.69) rotate(180)" style="fill:#FFC93A"></rect><rect x="615.13" y="259.98" width="40.76" height="11.73" transform="translate(1271.01 531.69) rotate(180)" style="opacity:0.2"></rect><g style="opacity:0.30000000000000004"><rect x="619.47" y="287.92" width="6.15" height="24.12"></rect></g><g style="opacity:0.30000000000000004"><rect x="619.47" y="320.79" width="6.15" height="24.12"></rect></g><g style="opacity:0.30000000000000004"><rect x="619.47" y="353.65" width="6.15" height="24.12"></rect></g><g style="opacity:0.30000000000000004"><rect x="629.65" y="287.92" width="6.15" height="24.12"></rect></g><g style="opacity:0.30000000000000004"><rect x="629.65" y="320.79" width="6.15" height="24.12"></rect></g><g style="opacity:0.30000000000000004"><rect x="629.65" y="353.65" width="6.15" height="24.12"></rect></g><g style="opacity:0.30000000000000004"><rect x="639.82" y="287.92" width="6.15" height="24.12"></rect></g><g style="opacity:0.30000000000000004"><rect x="639.82" y="320.79" width="6.15" height="24.12"></rect></g><g style="opacity:0.30000000000000004"><rect x="639.82" y="353.65" width="6.15" height="24.12"></rect></g><g style="opacity:0.30000000000000004"><rect x="649.99" y="287.92" width="6.15" height="24.12"></rect></g><g style="opacity:0.30000000000000004"><rect x="649.99" y="320.79" width="6.15" height="24.12"></rect></g><g style="opacity:0.30000000000000004"><rect x="649.99" y="353.65" width="6.15" height="24.12"></rect></g><rect x="522.14" y="279.23" width="92.99" height="130.79" style="fill:#FFC93A"></rect><rect x="526.59" y="259.98" width="88.54" height="11.73" style="fill:#FFC93A"></rect><rect x="519.35" y="271.71" width="95.77" height="7.52" style="fill:#FFC93A"></rect><rect x="519.35" y="271.71" width="95.77" height="7.52" style="opacity:0.2"></rect><g style="opacity:0.1"><rect x="531.03" y="287.92" width="12.62" height="24.12"></rect></g><g style="opacity:0.1"><rect x="531.03" y="320.79" width="12.62" height="24.12"></rect></g><g style="opacity:0.1"><rect x="531.03" y="353.65" width="12.62" height="24.12"></rect></g><g style="opacity:0.1"><rect x="551.89" y="287.92" width="12.62" height="24.12"></rect></g><g style="opacity:0.1"><rect x="551.89" y="320.79" width="12.62" height="24.12"></rect></g><g style="opacity:0.1"><rect x="551.89" y="353.65" width="12.62" height="24.12"></rect></g><g style="opacity:0.1"><rect x="572.75" y="287.92" width="12.62" height="24.12"></rect></g><g style="opacity:0.1"><rect x="572.75" y="320.79" width="12.62" height="24.12"></rect></g><g style="opacity:0.1"><rect x="572.75" y="353.65" width="12.62" height="24.12"></rect></g><g style="opacity:0.1"><rect x="593.61" y="287.92" width="12.62" height="24.12"></rect></g><g style="opacity:0.1"><rect x="593.61" y="320.79" width="12.62" height="24.12"></rect></g><g style="opacity:0.1"><rect x="593.61" y="353.65" width="12.62" height="24.12"></rect></g></g><g id="freepik--Streetlights--inject-23"><polygon points="72.42 410.02 76.86 410.02 75.75 290.46 73.53 290.46 72.42 410.02" style="fill:#FFC93A"></polygon><polygon points="72.42 410.02 76.86 410.02 75.75 290.46 73.53 290.46 72.42 410.02" style="opacity:0.2"></polygon><polygon points="73.53 290.56 100.06 275.79 100.06 276.52 75.48 291.3 73.53 290.56" style="fill:#FFC93A"></polygon><polygon points="73.53 290.56 100.06 275.79 100.06 276.52 75.48 291.3 73.53 290.56" style="opacity:0.2"></polygon><polygon points="97.6 275.14 97.91 277.76 109.78 277.76 109.78 273.44 97.6 275.14" style="fill:#FFC93A"></polygon><polygon points="75.56 290.56 49.04 275.79 49.04 276.52 73.61 291.3 75.56 290.56" style="fill:#FFC93A"></polygon><polygon points="75.56 290.56 49.04 275.79 49.04 276.52 73.61 291.3 75.56 290.56" style="opacity:0.2"></polygon><polygon points="51.49 275.14 51.19 277.76 39.32 277.76 39.32 273.44 51.49 275.14" style="fill:#FFC93A"></polygon><polygon points="77.73 410.02 71.55 410.02 72.14 377.79 77.11 377.79 77.73 410.02" style="fill:#FFC93A"></polygon><polygon points="372.87 410.02 377.31 410.02 376.2 290.46 373.98 290.46 372.87 410.02" style="fill:#FFC93A"></polygon><polygon points="372.87 410.02 377.31 410.02 376.2 290.46 373.98 290.46 372.87 410.02" style="opacity:0.2"></polygon><polygon points="373.98 290.56 400.51 275.79 400.51 276.52 375.94 291.3 373.98 290.56" style="fill:#FFC93A"></polygon><polygon points="373.98 290.56 400.51 275.79 400.51 276.52 375.94 291.3 373.98 290.56" style="opacity:0.2"></polygon><polygon points="398.05 275.14 398.36 277.76 410.23 277.76 410.23 273.44 398.05 275.14" style="fill:#FFC93A"></polygon><polygon points="376.02 290.56 349.49 275.79 349.49 276.52 374.06 291.3 376.02 290.56" style="fill:#FFC93A"></polygon><polygon points="376.02 290.56 349.49 275.79 349.49 276.52 374.06 291.3 376.02 290.56" style="opacity:0.2"></polygon><polygon points="351.95 275.14 351.64 277.76 339.77 277.76 339.77 273.44 351.95 275.14" style="fill:#FFC93A"></polygon><polygon points="378.18 410.02 372 410.02 372.6 377.79 377.57 377.79 378.18 410.02" style="fill:#FFC93A"></polygon><polygon points="673.33 410.02 677.76 410.02 676.65 290.46 674.43 290.46 673.33 410.02" style="fill:#FFC93A"></polygon><polygon points="673.33 410.02 677.76 410.02 676.65 290.46 674.43 290.46 673.33 410.02" style="opacity:0.2"></polygon><polygon points="674.43 290.56 700.96 275.79 700.96 276.52 676.39 291.3 674.43 290.56" style="fill:#FFC93A"></polygon><polygon points="674.43 290.56 700.96 275.79 700.96 276.52 676.39 291.3 674.43 290.56" style="opacity:0.2"></polygon><polygon points="698.51 275.14 698.81 277.76 710.68 277.76 710.68 273.44 698.51 275.14" style="fill:#FFC93A"></polygon><polygon points="676.47 290.56 649.94 275.79 649.94 276.52 674.52 291.3 676.47 290.56" style="fill:#FFC93A"></polygon><polygon points="676.47 290.56 649.94 275.79 649.94 276.52 674.52 291.3 676.47 290.56" style="opacity:0.2"></polygon><polygon points="652.4 275.14 652.09 277.76 640.23 277.76 640.23 273.44 652.4 275.14" style="fill:#FFC93A"></polygon><polygon points="678.63 410.02 672.46 410.02 673.05 377.79 678.02 377.79 678.63 410.02" style="fill:#FFC93A"></polygon></g><g id="freepik--Trees--inject-23"><path d="M59.39,365S71.58,392,51.68,392.05s-7-28-7-28-4.61-2,.72-17.13,7.71-15.12,9.93-15.12c2.8,0,5.42,6.53,3.52,16.57C58.82,348.37,65.83,360.9,59.39,365Z" style="fill:#37474f"></path><polygon points="49.94 410.02 51.81 369.21 53.77 410.01 49.94 410.02" style="fill:#263238"></polygon><polygon points="51.05 386.32 58.27 377.86 52.61 387.44 51.05 386.32" style="fill:#263238"></polygon><path d="M288.21,367.87s-5.68-2.25-10.18,5.59c-4.61,8,1.19,13.33,5.78,10.18,0,0,3.61,7.56,10.82,5.75s8.36-7.58,8.36-7.58,6.4.45,6.58-4.33-4.52-9-4.52-9-.28-11.89-8-11.79S288.21,367.87,288.21,367.87Z" style="fill:#455a64"></path><polygon points="293.52 410 295.11 374.62 296.76 409.99 293.52 410" style="fill:#263238"></polygon><polygon points="294.64 387.91 289.65 377.99 295.45 386.36 294.64 387.91" style="fill:#263238"></polygon><path d="M192.84,367.87s-5.68-2.25-10.17,5.59c-4.61,8,1.18,13.33,5.77,10.18,0,0,3.61,7.56,10.82,5.75s8.37-7.58,8.37-7.58,6.39.45,6.57-4.33-4.52-9-4.52-9-.28-11.89-8-11.79S192.84,367.87,192.84,367.87Z" style="fill:#455a64"></path><polygon points="198.16 410 199.74 374.62 201.4 409.99 198.16 410" style="fill:#263238"></polygon><polygon points="199.27 387.91 194.29 377.99 200.09 386.36 199.27 387.91" style="fill:#263238"></polygon><path d="M644.22,364.78s12.19,27.07-7.71,27.09-7-28-7-28-4.6-2,.72-17.14,7.72-15.11,9.94-15.12c2.8,0,5.42,6.54,3.52,16.58C643.65,348.19,650.66,360.72,644.22,364.78Z" style="fill:#37474f"></path><polygon points="634.76 409.83 636.63 369.03 638.6 409.83 634.76 409.83" style="fill:#263238"></polygon><polygon points="635.87 386.14 643.1 377.68 637.43 387.25 635.87 386.14" style="fill:#263238"></polygon><path d="M567.82,364.78s12.19,27.07-7.71,27.09-7-28-7-28-4.61-2,.72-17.14,7.71-15.11,9.93-15.12c2.8,0,5.42,6.54,3.52,16.58C567.25,348.19,574.26,360.72,567.82,364.78Z" style="fill:#37474f"></path><polygon points="558.36 409.83 560.24 369.03 562.2 409.83 558.36 409.83" style="fill:#263238"></polygon><polygon points="559.48 386.14 566.7 377.68 561.04 387.25 559.48 386.14" style="fill:#263238"></polygon><path d="M260.84,370.53s-10.63,23.73,6.8,23.71,6.11-24.54,6.11-24.54,4-1.78-.66-15-6.79-13.23-8.73-13.23c-2.46,0-4.74,5.74-3.06,14.53C261.3,356,255.18,367,260.84,370.53Z" style="fill:#37474f"></path><polygon points="269.2 409.98 267.49 374.24 265.84 409.98 269.2 409.98" style="fill:#263238"></polygon><polygon points="268.19 389.22 261.84 381.83 266.82 390.2 268.19 389.22" style="fill:#263238"></polygon><path d="M418,370.53s-10.62,23.73,6.81,23.71,6.11-24.54,6.11-24.54,4-1.78-.67-15-6.78-13.23-8.73-13.23c-2.45,0-4.73,5.74-3.05,14.53C418.49,356,412.37,367,418,370.53Z" style="fill:#37474f"></path><polygon points="426.39 409.98 424.67 374.24 423.03 409.98 426.39 409.98" style="fill:#263238"></polygon><polygon points="425.37 389.22 419.03 381.83 424.01 390.2 425.37 389.22" style="fill:#263238"></polygon><path d="M578.73,367.72s-5.68-2.24-10.17,5.6c-4.61,8,1.18,13.33,5.77,10.17,0,0,3.62,7.56,10.82,5.75s8.37-7.57,8.37-7.57,6.4.44,6.57-4.33-4.51-9-4.51-9-.29-11.89-8-11.8S578.73,367.72,578.73,367.72Z" style="fill:#455a64"></path><polygon points="584.05 409.85 585.63 374.47 587.29 409.85 584.05 409.85" style="fill:#263238"></polygon><polygon points="585.14 387.73 580.18 377.85 586.12 386.2 585.14 387.73" style="fill:#263238"></polygon></g><g id="freepik--Floor--inject-23"><rect x="33.68" y="464.65" width="682.63" height="7.27" style="fill:#c7c7c7"></rect><path d="M81.54,464.65a7.85,7.85,0,0,1,.81,3.63,7.73,7.73,0,0,1-.81,3.63,7.73,7.73,0,0,1-.81-3.63A7.85,7.85,0,0,1,81.54,464.65Z" style="fill:#263238"></path><path d="M134.9,464.65a8.54,8.54,0,0,1,0,7.26,7.61,7.61,0,0,1-.81-3.63A7.73,7.73,0,0,1,134.9,464.65Z" style="fill:#263238"></path><path d="M188.25,464.65a7.73,7.73,0,0,1,.81,3.63,7.61,7.61,0,0,1-.81,3.63,8.54,8.54,0,0,1,0-7.26Z" style="fill:#263238"></path><path d="M241.61,464.65a7.85,7.85,0,0,1,.81,3.63,7.73,7.73,0,0,1-.81,3.63,7.73,7.73,0,0,1-.81-3.63A7.85,7.85,0,0,1,241.61,464.65Z" style="fill:#263238"></path><path d="M295,464.65a8.54,8.54,0,0,1,0,7.26,7.74,7.74,0,0,1-.82-3.63A7.86,7.86,0,0,1,295,464.65Z" style="fill:#263238"></path><path d="M348.32,464.65a7.73,7.73,0,0,1,.81,3.63,7.61,7.61,0,0,1-.81,3.63,7.73,7.73,0,0,1-.81-3.63A7.85,7.85,0,0,1,348.32,464.65Z" style="fill:#263238"></path><path d="M401.68,464.65a7.85,7.85,0,0,1,.81,3.63,7.73,7.73,0,0,1-.81,3.63,7.61,7.61,0,0,1-.81-3.63A7.73,7.73,0,0,1,401.68,464.65Z" style="fill:#263238"></path><path d="M455,464.65a7.86,7.86,0,0,1,.82,3.63,7.74,7.74,0,0,1-.82,3.63,8.54,8.54,0,0,1,0-7.26Z" style="fill:#263238"></path><path d="M508.39,464.65a7.85,7.85,0,0,1,.81,3.63,7.73,7.73,0,0,1-.81,3.63,7.73,7.73,0,0,1-.81-3.63A7.85,7.85,0,0,1,508.39,464.65Z" style="fill:#263238"></path><path d="M561.75,464.65a8.54,8.54,0,0,1,0,7.26,7.61,7.61,0,0,1-.81-3.63A7.73,7.73,0,0,1,561.75,464.65Z" style="fill:#263238"></path><path d="M615.1,464.65a7.73,7.73,0,0,1,.81,3.63,7.61,7.61,0,0,1-.81,3.63,8.54,8.54,0,0,1,0-7.26Z" style="fill:#263238"></path><path d="M668.46,464.65a7.85,7.85,0,0,1,.81,3.63,7.73,7.73,0,0,1-.81,3.63,7.73,7.73,0,0,1-.81-3.63A7.85,7.85,0,0,1,668.46,464.65Z" style="fill:#263238"></path><polygon points="33.19 471.92 118.64 471.67 204.1 471.58 375 471.42 545.9 471.58 631.36 471.67 716.81 471.92 631.36 472.16 545.9 472.25 375 472.41 204.1 472.25 118.64 472.16 33.19 471.92" style="fill:#263238"></polygon><polygon points="33.19 410.02 118.64 409.77 204.1 409.68 375 409.52 545.9 409.68 631.36 409.77 716.81 410.02 631.36 410.26 545.9 410.35 375 410.51 204.1 410.35 118.64 410.26 33.19 410.02" style="fill:#263238"></polygon></g><g id="freepik--Character--inject-23"><path d="M354.35,411.62s-1.26,34.32-1.26,34.34c.2,6.71.5,12.59.93,15.61a.09.09,0,0,0,0,.05,4.66,4.66,0,0,0,.56,2.06l0,0c2,1.29,55.67,1.24,57.54.61s.22-6-1.86-7.67-22.64-10.83-22.64-10.83l.93-34.29Z" style="fill:#eb9481"></path><path d="M352.83,438.77s.26,7.17.26,7.19c.2,6.71.5,12.59.93,15.61a.09.09,0,0,0,0,.05,9.07,9.07,0,0,0,.56,2.06l0,0c2,1.29,55.67,1.24,57.54.61s.22-6-1.86-7.67-22.64-10.83-22.64-10.83l-.16-7.3Z" style="fill:#fff"></path><path d="M412.17,464.33c-1.87.63-55.5.68-57.55-.61-.78-.48-1.24-8.3-1.53-17.76,0-.09,0-.19,0-.29l34.61-.42,0,.59s20.54,9.16,22.64,10.82S414.05,463.71,412.17,464.33Z" style="fill:#a6a6a6"></path><path d="M411.56,462.25c-9-.21-45.52-.22-54.48.25-.07,0-.07.06,0,.06,9,.41,45.45.12,54.49-.16C411.76,462.39,411.76,462.26,411.56,462.25Z" style="fill:#263238"></path><path d="M390.58,445.94c-3.56-.66-7.91-.11-10.62,2.43-.11.09,0,.24.15.21a49.65,49.65,0,0,1,10.46-2.19A.23.23,0,0,0,390.58,445.94Z" style="fill:#263238"></path><path d="M393.15,447.48c-3.56-.66-7.91-.11-10.63,2.43-.1.1,0,.25.16.21a50.16,50.16,0,0,1,10.46-2.19A.23.23,0,0,0,393.15,447.48Z" style="fill:#263238"></path><path d="M395.72,449c-3.56-.66-7.91-.11-10.63,2.43-.1.09,0,.24.16.21a49.52,49.52,0,0,1,10.46-2.19A.23.23,0,0,0,395.72,449Z" style="fill:#263238"></path><path d="M350.76,445.59l37.53-.75s4.57-67.52,3.72-90c-.93-24.45-11.43-97.21-11.43-97.21H348.89s8.1,73.05,8.27,97.51C357.32,377.78,350.76,445.59,350.76,445.59Z" style="fill:#37474f"></path><path d="M374.35,257.6l-19,65.86c-2.26-31.17-6.43-65.86-6.43-65.86Z" style="fill:#263238"></path><path d="M354.9,261.18l2,21.72,1.86,21.73c1.2,14.49,2.33,29,3.19,43.51.21,3.63.34,7.28.29,10.93s-.23,7.28-.41,10.91q-.56,10.89-1.4,21.77t-1.76,21.74l-2,21.72,1.63-21.75q.81-10.87,1.53-21.75c.45-7.26.95-14.51,1.28-21.77.17-3.63.3-7.26.37-10.88s-.1-7.24-.32-10.87c-.8-14.51-1.94-29-3-43.51Z" style="fill:#263238"></path><path d="M386.72,438.58c-5.86-.05-4.18-.12-10-.11-2.86,0-21.7.08-24.38.55-.06,0-.05.11,0,.12,2.69.41,21.52,0,24.39,0,5.86-.13,4.18-.16,10-.35A.09.09,0,0,0,386.72,438.58Z" style="fill:#263238"></path><path d="M294.3,391.45l-18.11,29.44c-2.94,6-5.41,11.37-6.43,14.26a.05.05,0,0,0,0,0,4.75,4.75,0,0,0-.46,2.08s0,0,0,.06c1.2,2.09,48.71,27,50.66,27.3s3-5.22,1.91-7.66-15-20.11-15-20.11l17.79-29.55Z" style="fill:#eb9481"></path><path d="M269.28,437.28a.11.11,0,0,0,0,.05c1.21,2.09,48.72,27,50.67,27.3s3-5.22,1.92-7.66-15-20.11-15-20.11l3.17-5.27c-7.76-4.14-21.88-11.41-30.64-15.92-1.91,3.1-3.21,5.22-3.21,5.23-2.94,6-5.41,11.36-6.43,14.24l0,.05A4.61,4.61,0,0,0,269.28,437.28Z" style="fill:#fff"></path><path d="M320,464.63c-2-.31-49.46-25.21-50.67-27.3-.47-.79,2.76-7.93,6.9-16.43l.13-.27,30.83,15.72-.28.52s13.92,17.66,15,20.1S321.91,465,320,464.63Z" style="fill:#a6a6a6"></path><path d="M320.38,462.51c-7.9-4.4-40.2-21.37-48.35-25.11-.06,0-.09,0,0,.05,7.74,4.52,40.17,21.23,48.31,25.19C320.49,462.72,320.55,462.6,320.38,462.51Z" style="fill:#263238"></path><path d="M309.39,438.31c-2.84-2.24-6.95-3.78-10.53-2.8-.14,0-.08.24,0,.26a49.66,49.66,0,0,1,10.28,2.93A.23.23,0,0,0,309.39,438.31Z" style="fill:#263238"></path><path d="M311,440.87c-2.84-2.24-6.95-3.78-10.54-2.79-.14,0-.08.23,0,.25a50.47,50.47,0,0,1,10.28,2.93A.23.23,0,0,0,311,440.87Z" style="fill:#263238"></path><path d="M312.51,443.43c-2.85-2.24-7-3.77-10.54-2.79-.14,0-.08.24,0,.26a50.35,50.35,0,0,1,10.27,2.92A.23.23,0,0,0,312.51,443.43Z" style="fill:#263238"></path><path d="M377.34,257.56v0c-.14.65-2.35,10.93-4.65,19.76-1.67,6.45-3.39,12.12-4.38,12.71s-6.55,3.07-8.38,3.83c0,0-12.24,61.09-18.7,80-6,17.48-30.63,64.21-30.63,64.21l-35.8-18.08s28-47.43,30.89-55.94c4.56-13.19,21.63-77.6,21.63-77.6s-.13-20.16,6.66-29Z" style="fill:#37474f"></path><path d="M310.06,431.17c-5.12-2.85-3.61-2.11-8.75-4.91-2.52-1.37-19.08-10.36-21.65-11.22-.06,0-.11.07-.06.1,2.16,1.65,18.87,10.35,21.41,11.67,5.2,2.7,3.74,1.87,9,4.51A.09.09,0,1,0,310.06,431.17Z" style="fill:#263238"></path><path d="M336.5,280.92c1-.25,2-.33,3-.49.81-.12,1.62-.27,2.41-.44a10.45,10.45,0,0,0,4.26-1.79,10.22,10.22,0,0,0,2.76-4.29c.39-.93.8-1.86,1.22-2.78.2-.45.4-.9.61-1.34a15.65,15.65,0,0,0,.76-1.61c0-.08.15,0,.12,0a11.83,11.83,0,0,0-.34,1.16c-.14.45-.26.9-.4,1.35-.25.8-.49,1.61-.76,2.4a19.32,19.32,0,0,1-1.7,4.22c-1.48,2.35-4.12,3.3-6.77,3.63-.75.1-1.52.15-2.28.2a17.31,17.31,0,0,1-2.88,0A.14.14,0,0,1,336.5,280.92Z" style="fill:#263238"></path><path d="M371.2,288.63A70.55,70.55,0,0,0,360,293.85a.13.13,0,0,0,.11.23c3.77-1.62,7.63-3.17,11.31-5A.25.25,0,0,0,371.2,288.63Z" style="fill:#263238"></path><path d="M372.34,262.74c0-.13-.24-.16-.24,0a125.58,125.58,0,0,1-.64,12.63c-.17,1.95-1.74,12.71-5.11,11.92-.57-.13-.86-.69-.94-1.54a13.36,13.36,0,0,1,.44-3.3c.38-2.25.68-4.51.87-6.78a62.25,62.25,0,0,0-.13-12.73.11.11,0,0,0-.22,0,117.23,117.23,0,0,1-1,17.57c-.42,2.8-1.83,7,1.09,7.44s4.91-6.62,5.28-8.55A64.91,64.91,0,0,0,372.34,262.74Z" style="fill:#263238"></path><path d="M366.44,287.56a17.22,17.22,0,0,0-.76,2.23,5.27,5.27,0,0,0-.32,1.83.14.14,0,0,0,.24.05,6.6,6.6,0,0,0,.78-1.78c.26-.69.53-1.37.77-2.07A.38.38,0,0,0,366.44,287.56Z" style="fill:#263238"></path><path d="M284.45,414.13c5.1-9.59,10.35-19.1,15.62-28.59,2.6-4.68,5.31-9.31,7.8-14.06a85,85,0,0,0,5.66-14.65q4.73-15.37,9-30.88t7.94-31.16c.62-2.61,1.31-5.21,1.81-7.85a24.32,24.32,0,0,0,0-8,25.35,25.35,0,0,1-.06-7.48,49.53,49.53,0,0,1,1.75-7.31c.39-1.26.82-2.51,1.25-3.76a.12.12,0,0,1,.22.07c-1.54,5.05-3.12,10.15-2.79,15.5.16,2.57.84,5.09.8,7.68a36.32,36.32,0,0,1-1.3,7.59q-3.64,15.74-7.84,31.34t-8.86,31.07a121.41,121.41,0,0,1-5.1,14.88c-2.16,4.79-4.89,9.32-7.46,13.9-5.32,9.46-10.68,18.89-16.17,28.26l-2.09,3.55A.07.07,0,0,1,284.45,414.13Z" style="fill:#263238"></path><path d="M361.66,207.86c.51,19.24,2.87,27.83,5.95,41.23,2.2,9.58,16.28,23.61,25.78,33.23,1.56,1.58,20.11-11.29,18.5-14.54-1-2-22.73-22.41-24.79-27.63-2.73-6.9-9.27-22.08-15.75-34.51C367.41,198.06,361.31,194.17,361.66,207.86Z" style="fill:#eb9481"></path><path d="M403.07,289.33c-1.24-.78-1.66-.13-.78,2.33s6.44,11.43,3.14,13.1-10.95-11.1-12.1-15.3a68.91,68.91,0,0,1-1.53-11.41C393.78,280.24,399.12,285.09,403.07,289.33Z" style="fill:#eb9481"></path><path d="M409.42,265.26c6.43,6.3,12.46,14,14,23.24a4.67,4.67,0,0,1-.42,3c.78,4.14-.94,5.76-.94,5.76-.45,4.08-2.43,5.49-2.43,5.49s.21,3.4-2.15,3.73-4.54-5-7.24-8.65c-6.19-8.45-16.46-17.54-18.48-19.8Z" style="fill:#eb9481"></path><path d="M410.91,285.63a65.14,65.14,0,0,1,5,7.71,67.07,67.07,0,0,1,3.65,9.37.08.08,0,0,0,.16,0A35.53,35.53,0,0,0,411,285.55C410.93,285.44,410.82,285.5,410.91,285.63Z" style="fill:#263238"></path><path d="M415.47,281.15c1.59,2.55,4.35,7.05,6.54,16.15,0,0,.06,0,.05,0a31.87,31.87,0,0,0-6.47-16.22C415.48,280.92,415.37,281,415.47,281.15Z" style="fill:#263238"></path><path d="M418,278.79a50.12,50.12,0,0,1,5,12.72s.07,0,.06,0c-1.06-6-2.13-8.11-5-12.82C418,278.52,417.87,278.62,418,278.79Z" style="fill:#263238"></path><path d="M389.29,284.91l20.46-23.64s-19.47-17.14-20.55-19.46S377.05,215.89,373,207.17c-4.6-9.84-12.29-15.4-11.71.69A223.27,223.27,0,0,0,367.51,253C368.76,258.48,389.29,284.91,389.29,284.91Z" style="fill:#FFC93A"></path><path d="M387.44,277.71a27.52,27.52,0,0,1,2.1-2.48c.64-.74,1.26-1.49,1.9-2.22,1.39-1.59,2.78-3.18,4.19-4.77s2.79-3.16,4.21-4.72,2.77-3.17,4.27-4.65c.05-.06.14,0,.1.09-1.18,1.74-2.54,3.37-3.86,5s-2.66,3.18-4,4.73-2.83,3.13-4.29,4.65c-.7.74-1.43,1.45-2.15,2.17a26.49,26.49,0,0,1-2.35,2.27S387.4,277.76,387.44,277.71Z" style="fill:#263238"></path><path d="M361.28,207.86A223.27,223.27,0,0,0,367.51,253c1.26,5.51,21.79,31.93,21.79,31.93l9.3-10.75-34.31-76.44C362.35,198,361,200.85,361.28,207.86Z" style="opacity:0.1"></path><path d="M324.88,279.24c.13.15,60.4-1.5,60.91-2.09.16-.18,1.88-7.69,1-12.25-3.43-17-14.95-57.88-19.62-63.95-5.47-7.13-14-3.84-16-2.53-9.12,6.12-28.42,61.67-29.57,66.92C320.58,269.89,324.65,279,324.88,279.24Z" style="fill:#FFC93A"></path><path d="M364.49,271.78c6.34-.33,12.64-.65,18.95-.91l-.32.42-2.32-9.64.23.25a7.75,7.75,0,0,1-3.08-2.24,12.32,12.32,0,0,1-1.92-3.23,20.38,20.38,0,0,1-1.14-3.55,28.06,28.06,0,0,1-.59-3.67l.37.33-14.95.57.3-.28-.36,2.35c-.13.78-.36,1.54-.53,2.31s-.5,1.51-.76,2.26l-.51,1.08c-.08.18-.16.36-.26.54l-.32.51a9.36,9.36,0,0,1-3.32,3.41,7.26,7.26,0,0,1-4.65.92l.17-.08-4.16,9.63ZM349.2,263l0-.1h.13a7.13,7.13,0,0,0,4.39-1,9,9,0,0,0,3.12-3.31l.3-.49.24-.53.48-1.05c.24-.74.51-1.46.7-2.21s.36-1.51.48-2.28l.32-2.31,0-.26h.26l14.94-.66H375l0,.34a25.44,25.44,0,0,0,.6,3.56,19.14,19.14,0,0,0,1.11,3.41,12.26,12.26,0,0,0,1.8,3.05,7.19,7.19,0,0,0,2.76,2l.19.07,0,.19,2.27,9.65.1.41h-.41c-6.41.26-12.82.45-19.19.65l-19,.56Z" style="opacity:0.1"></path><path d="M342.58,204.08c-16.9,13.95-37.28,38.66-31.1,45.47,5.64,6.22,28.15,4.65,43.71,1,3-.69,3-23.4-.24-23.32-6,.15-17.17,2.2-17.57,2.25-.84.1,6.21-11.18,12.8-22.16C357.52,195.12,352.25,196.11,342.58,204.08Z" style="fill:#eb9481"></path><path d="M350.78,198c-11.46,4.8-44.28,38.49-41,49.7s38.78,5,38.78,5l1.72-26.71s-9.88,1.51-10.1,1,7-12.62,9.9-17.55S356.88,195.49,350.78,198Z" style="fill:#FFC93A"></path><path d="M344.57,250.49c0-3.84.4-19.56.72-23,0-.23.18-.28.19,0a207.42,207.42,0,0,1-.76,23C344.72,250.58,344.57,250.59,344.57,250.49Z" style="fill:#263238"></path><path d="M350.54,225.74a20.86,20.86,0,0,0-3.16.29c-.94.12-1.87.23-2.8.37-2,.28-4.05.61-6.07,1s-4,.72-6,1.12-4,.91-6,1.31c-.1,0-.06.15,0,.14,2-.37,4.07-.59,6.1-.91l6-.92,6-.91,2.92-.47c.95-.15,1.88-.34,2.82-.55a14.71,14.71,0,0,0-.1,1.47C350.41,227.57,350.77,225.74,350.54,225.74Z" style="fill:#263238"></path><path d="M348.16,215.36c-.65.61-1.3,1.22-1.92,1.87l-.33.36c.19-.35.39-.7.59-1a38.21,38.21,0,0,0,2-3.72c0-.06-.06-.1-.1-.05a42.51,42.51,0,0,0-2.4,3.7c-.76,1.22-1.53,2.43-2.26,3.67s-1.49,2.45-2.2,3.7a28,28,0,0,0-2,3.75c0,.08.07.12.12.07a31.24,31.24,0,0,0,2.45-3.67c.75-1.23,1.47-2.47,2.2-3.71.31-.51.6-1,.9-1.56l.33-.33c.31-.31.61-.63.89-1,.6-.67,1.16-1.36,1.72-2.06C348.22,215.37,348.18,215.34,348.16,215.36Z" style="fill:#263238"></path><path d="M348.74,252.15c0-.19-.08-.24-.14-.05s-.08.31-.12.42c-1.19.13-5.59.75-6.66.89-2.25.3-4.5.52-6.77.66s-4.54.23-6.82.21a82.18,82.18,0,0,1-12.94-1.69c-.09,0-.1.11,0,.15a51.48,51.48,0,0,0,13,2.11c2.25.09,4.52.07,6.78,0s4.6-.34,6.88-.66c1.14-.16,2.27-.36,3.41-.57a16.17,16.17,0,0,0,3.22-.74.27.27,0,0,0,.14-.2C348.73,252.48,348.74,252.32,348.74,252.15Z" style="fill:#263238"></path><path d="M361.22,207.73s-8.71-8-14.17-7.59l-5.16,3.76s-.84,1.06-1.35.11a10.17,10.17,0,0,1,3.17-12c4.43-3.58,13.78-3.19,20.05-1.76,6,1.37,9.41,4.77,7.71,8.72S361.22,207.73,361.22,207.73Z" style="fill:#FFC93A"></path><path d="M361.75,205.89s6.68-5.11,7.29-8-5.28-5.49-9.06-6.45c-5.85-1.48-9.79-1-12.93,2.22S361.75,205.89,361.75,205.89Z" style="opacity:0.1"></path><path d="M361.75,205.89c-2.75.31-7.94-3.51-9.39-7.55a63.4,63.4,0,0,1,1.56-6.15c.51-2,1-4.18,1.34-6.22.07-.43,12.34,5.14,12.34,5.14a33,33,0,0,0-2.48,7.66,5.08,5.08,0,0,0-.05.86.65.65,0,0,1,0,.14C365.08,201.4,364.69,205.55,361.75,205.89Z" style="fill:#eb9481"></path><path d="M365.08,199.63s0,.09,0,.14a9.28,9.28,0,0,1-1.32-.14c-7.53-1.36-8-11.13-8-13.59,2.22.69,11.88,5.07,11.88,5.07a33.12,33.12,0,0,0-2.48,7.67A4.1,4.1,0,0,0,365.08,199.63Z" style="fill:#263238"></path><path d="M353.73,171c-1.35,4.62,1.23,17.9,4.54,20.83,4.8,4.24,12.58,4.57,16.17-1.18,3.48-5.58-.19-22.83-3.88-25.48C365.12,161.29,355.73,164.2,353.73,171Z" style="fill:#eb9481"></path><path d="M367,179s-.06.06-.06.09c.2.89.28,1.95-.47,2.4,0,0,0,0,0,0C367.49,181.24,367.37,179.84,367,179Z" style="fill:#263238"></path><path d="M366.06,178.25c-1.46.16-1,3.07.33,2.92S367.29,178.11,366.06,178.25Z" style="fill:#263238"></path><path d="M372.36,178.34s.08,0,.09.07c.1.9.38,1.92,1.24,2.1,0,0,0,.05,0,.05C372.67,180.57,372.32,179.21,372.36,178.34Z" style="fill:#263238"></path><path d="M373,177.28c1.43-.33,2,2.56.65,2.86S371.83,177.55,373,177.28Z" style="fill:#263238"></path><path d="M364.71,177.09a9.93,9.93,0,0,0,1.07-.57c.41-.22.76-.35,1-.78a.63.63,0,0,0-.21-.73,1.56,1.56,0,0,0-1.56.07,2.32,2.32,0,0,0-1.15,1.16A.67.67,0,0,0,364.71,177.09Z" style="fill:#263238"></path><path d="M373.8,174.68c-.41,0-.79-.08-1.2-.13a2,2,0,0,1-1.2-.36.63.63,0,0,1-.08-.76,1.53,1.53,0,0,1,1.48-.51,2.24,2.24,0,0,1,1.5.65A.67.67,0,0,1,373.8,174.68Z" style="fill:#263238"></path><path d="M367.49,187.54c.25.17.51.43.84.41a2.49,2.49,0,0,0,.93-.37s.06,0,.05,0a1.22,1.22,0,0,1-1.07.66,1,1,0,0,1-.83-.69C367.39,187.54,367.45,187.51,367.49,187.54Z" style="fill:#263238"></path><path d="M368,184.7a3.17,3.17,0,0,0,2.26,1.06,4.24,4.24,0,0,0,1.11-.12l.2,0,.2-.06a.24.24,0,0,0,.15-.23h0s0-.06,0-.09h0v-.08c-.08-.69-.31-1.74-.31-1.74.27.09,1.65.48,1.58.12a47.2,47.2,0,0,0-2.58-9.11.08.08,0,0,0-.16.05c.49,2.88,1.48,5.66,2,8.55a5.28,5.28,0,0,0-1.51-.23c-.1.05.47,2,.48,2.33v0a4.23,4.23,0,0,1-3.32-.51C368,184.56,368,184.63,368,184.7Z" style="fill:#263238"></path><path d="M370.94,185.35a3.8,3.8,0,0,1-1.29,1.35,1.66,1.66,0,0,1-1,.21c-.75-.08-.86-.74-.82-1.33a3.87,3.87,0,0,1,.2-.91A4.75,4.75,0,0,0,370.94,185.35Z" style="fill:#263238"></path><path d="M369.65,186.7a1.66,1.66,0,0,1-1,.21c-.75-.08-.86-.74-.82-1.33A1.73,1.73,0,0,1,369.65,186.7Z" style="fill:#ff9abb"></path><path d="M358.72,178.8c.69-2.72-1.17-7,.06-8.31,2.65-2.8,8.89,1.67,12.91,1.38s5-2.89,4.05-6-3.81-5-8.23-5.32A16.46,16.46,0,0,0,356.84,164s.86-1.66.45-2.12-2.19,1.21-2.73,1.9a5.8,5.8,0,0,0-.8,1.95,6.46,6.46,0,0,0-1.79,0,3.68,3.68,0,0,0-2.23,1.21c-.05.24,1.38.31,2.38.28,0,0-1.66,2.61-1.46,4.71s4.27,11.84,5.07,11.89C356.75,183.83,358.44,179.9,358.72,178.8Z" style="fill:#263238"></path><path d="M352.48,166.89s.09,0,0,.05a6.7,6.7,0,0,0-1.87,3.14,8.32,8.32,0,0,0,.3,4.34,39.93,39.93,0,0,0,3.76,7.58c0,.07-.08.14-.13.07a29.63,29.63,0,0,1-4-8.16C349.89,171.43,350.24,168.48,352.48,166.89Z" style="fill:#263238"></path><path d="M358.54,169.48a9.42,9.42,0,0,1,3.55,0,13.56,13.56,0,0,1,3.15,1.26,13.47,13.47,0,0,0,7.34,1.41s0,0,0,.05a11.84,11.84,0,0,1-6.81-.91,28.38,28.38,0,0,0-3.26-1.41,12.18,12.18,0,0,0-3.95-.14A.11.11,0,0,1,358.54,169.48Z" style="fill:#263238"></path><path d="M359.15,162.69a18.7,18.7,0,0,1,4.86-2,14.76,14.76,0,0,1,5-.57,7.28,7.28,0,0,1,6.62,4.78,6.3,6.3,0,0,1-.23,4.54.08.08,0,1,1-.15-.06,6.52,6.52,0,0,0-2.08-7.53c-2.53-1.87-5.86-1.77-8.78-1.06a26.86,26.86,0,0,0-5.26,2S359.14,162.7,359.15,162.69Z" style="fill:#263238"></path><path d="M357.72,182s-3.15-4.2-5.06-3.07.54,7.3,2.85,8.08a2.34,2.34,0,0,0,3.09-1.35Z" style="fill:#eb9481"></path><path d="M353.4,180.66a0,0,0,0,0,0,.06,5.87,5.87,0,0,1,3.16,3.59,1.28,1.28,0,0,0-1.93-.29s0,.1,0,.08a1.45,1.45,0,0,1,1.6.45,7.42,7.42,0,0,1,.79,1.26c.08.14.34.05.28-.11v0C357.29,183.61,355.61,180.8,353.4,180.66Z" style="fill:#263238"></path><path d="M361.75,205.89s-7.14-11.22-15.62-12.07l.92,6.32s5-.16,14.17,7.59Z" style="fill:#FFC93A"></path><path d="M344.78,200.33a10.77,10.77,0,0,1,4.55.46,19.32,19.32,0,0,1,4.21,1.79,33.51,33.51,0,0,1,3.87,2.49l1.81,1.42L361,208l.19.17.21-.11a38.71,38.71,0,0,0,4.46-2.9,22,22,0,0,0,2-1.69,12.85,12.85,0,0,0,1.78-2,23.5,23.5,0,0,1-4.09,3.29c-.73.48-1.48.94-2.23,1.38s-1.52.88-2.29,1.27l.41.05-1.76-1.55c-.6-.5-1.22-1-1.84-1.46s-1.29-.9-1.95-1.32-1.34-.82-2.05-1.15a18.47,18.47,0,0,0-4.42-1.62,11.78,11.78,0,0,0-1.16-.21c-.4,0-.79-.09-1.18-.09A6.71,6.71,0,0,0,344.78,200.33Z" style="fill:#263238"></path><path d="M341.38,204.32a27.58,27.58,0,0,0,5.51-4.11,28.64,28.64,0,0,0-5.51,4.11Z" style="fill:#263238"></path><path d="M358.11,203.29a46.5,46.5,0,0,0-1.26,7.94c-.15,1.87.19,8.61,2.28,8.48s-1.05-4.64-1.44-8.21.7-6.1.95-8.21Z" style="fill:#FFC93A"></path><g style="opacity:0.1"><path d="M358.11,203.29a46.5,46.5,0,0,0-1.26,7.94c-.15,1.87.19,8.61,2.28,8.48s-1.05-4.64-1.44-8.21.7-6.1.95-8.21Z"></path></g><path d="M365.72,203.29a41.68,41.68,0,0,1,1.14,7.2c.13,1.69-.17,7.81-2.07,7.69s.95-4.2,1.31-7.44-.64-5.54-.86-7.45Z" style="fill:#FFC93A"></path><g style="opacity:0.1"><path d="M365.72,203.29a41.68,41.68,0,0,1,1.14,7.2c.13,1.69-.17,7.81-2.07,7.69s.95-4.2,1.31-7.44-.64-5.54-.86-7.45Z"></path></g><polygon points="380.88 218.28 378.68 245.92 363.47 245.92 361.27 218.28 380.88 218.28" style="fill:#c7c7c7"></polygon><rect x="359.83" y="215.78" width="22.35" height="4.03" style="fill:#455a64"></rect><polygon points="380.66 215.78 361.37 215.78 362.49 211.25 379.53 211.25 380.66 215.78" style="fill:#37474f"></polygon><path d="M376.36,232.34c0,3.59-2.37,6.5-5.28,6.5s-5.28-2.91-5.28-6.5,2.36-6.5,5.28-6.5S376.36,228.75,376.36,232.34Z" style="fill:#fff"></path><path d="M382.93,226a3.67,3.67,0,0,1-.88,4.12,5.49,5.49,0,0,1,2.24,3c.56,2.19-2.62,4-2.62,4a6.74,6.74,0,0,1,1.86,3.52c.33,2.14-2.62,4.45-2.62,4.45a5.92,5.92,0,0,1-.31,4.12c-1.72,3.38-7.51,3.89-11.18,4.25s-14.43-2.07-16.52-2.33l-1.13-23.59s14.64-6.25,19-6.06C374.48,221.6,381.72,223.35,382.93,226Z" style="fill:#eb9481"></path><path d="M381.94,229.8c-3.86-1.16-7.86-1.12-11.86-1.3a.07.07,0,0,0,0,.14c4,.13,7.87,1.05,11.83,1.35A.1.1,0,0,0,381.94,229.8Z" style="fill:#263238"></path><path d="M381.57,236.85a10.48,10.48,0,0,0-2.74-.18c-1,0-1.95,0-2.93.07q-2.92.1-5.84.36c-.09,0-.1.14,0,.14,1.94-.07,3.89-.11,5.84-.1l2.92,0a12,12,0,0,0,2.75-.07A.14.14,0,0,0,381.57,236.85Z" style="fill:#263238"></path><path d="M380.74,245.11a7.12,7.12,0,0,0-2.48,0l-2.67.14c-1.77.09-3.55.17-5.33.19a.07.07,0,0,0,0,.14c1.8,0,3.61,0,5.42,0l2.66-.06a7,7,0,0,0,2.41-.26A0,0,0,0,0,380.74,245.11Z" style="fill:#263238"></path></g></svg>